<svg width="118" height="128" viewBox="0 0 118 128" fill="none" xmlns="http://www.w3.org/2000/svg">
<g filter="url(#filter0_d)">
<path fill-rule="evenodd" clip-rule="evenodd" d="M36.2013 10.5H81.2956C84.6176 10.5 87.3082 13.185 87.3082 16.5V76.5C87.3082 79.815 84.6176 82.5 81.2956 82.5H36.2013C32.8793 82.5 30.1887 79.815 30.1887 76.5V16.5C30.1887 13.185 32.8793 10.5 36.2013 10.5ZM48.2265 54C48.2265 51.516 46.2062 49.5 43.717 49.5C41.2278 49.5 39.2076 51.516 39.2076 54C39.2076 56.484 41.2278 58.5 43.717 58.5C46.2062 58.5 48.2265 56.484 48.2265 54ZM39.2076 39C39.2076 36.516 41.2278 34.5 43.717 34.5C46.2062 34.5 48.2265 36.516 48.2265 39C48.2265 41.484 46.2062 43.5 43.717 43.5C41.2278 43.5 39.2076 41.484 39.2076 39ZM43.717 73.5H58.7485C61.2377 73.5 63.2579 71.484 63.2579 69C63.2579 66.516 61.2377 64.5 58.7485 64.5H43.717C41.2278 64.5 39.2076 66.516 39.2076 69C39.2076 71.484 41.2278 73.5 43.717 73.5ZM58.7485 58.5C56.2593 58.5 54.239 56.484 54.239 54C54.239 51.516 56.2593 49.5 58.7485 49.5C61.2377 49.5 63.2579 51.516 63.2579 54C63.2579 56.484 61.2377 58.5 58.7485 58.5ZM54.239 39C54.239 41.484 56.2593 43.5 58.7485 43.5C61.2377 43.5 63.2579 41.484 63.2579 39C63.2579 36.516 61.2377 34.5 58.7485 34.5C56.2593 34.5 54.239 36.516 54.239 39ZM73.7799 73.5C71.2907 73.5 69.2705 71.484 69.2705 69C69.2705 66.516 71.2907 64.5 73.7799 64.5C76.2691 64.5 78.2893 66.516 78.2893 69C78.2893 71.484 76.2691 73.5 73.7799 73.5ZM69.2705 54C69.2705 56.484 71.2907 58.5 73.7799 58.5C76.2691 58.5 78.2893 56.484 78.2893 54C78.2893 51.516 76.2691 49.5 73.7799 49.5C71.2907 49.5 69.2705 51.516 69.2705 54ZM73.7799 43.5C71.2907 43.5 69.2705 41.484 69.2705 39C69.2705 36.516 71.2907 34.5 73.7799 34.5C76.2691 34.5 78.2893 36.516 78.2893 39C78.2893 41.484 76.2691 43.5 73.7799 43.5ZM39.2076 28.5H78.2893V19.5H39.2076V28.5Z" fill="url(#paint0_linear)"/>
</g>
<defs>
<filter id="filter0_d" x="0.188721" y="-4.5" width="117.119" height="132" filterUnits="userSpaceOnUse" color-interpolation-filters="sRGB">
<feFlood flood-opacity="0" result="BackgroundImageFix"/>
<feColorMatrix in="SourceAlpha" type="matrix" values="0 0 0 0 0 0 0 0 0 0 0 0 0 0 0 0 0 0 127 0"/>
<feOffset dy="15"/>
<feGaussianBlur stdDeviation="15"/>
<feColorMatrix type="matrix" values="0 0 0 0 0.0862745 0 0 0 0 0.635294 0 0 0 0 0.588235 0 0 0 0.5 0"/>
<feBlend mode="normal" in2="BackgroundImageFix" result="effect1_dropShadow"/>
<feBlend mode="normal" in="SourceGraphic" in2="effect1_dropShadow" result="shape"/>
</filter>
<linearGradient id="paint0_linear" x1="1.62897" y1="10.5" x2="1.62897" y2="82.5" gradientUnits="userSpaceOnUse">
<stop stop-color="white"/>
<stop offset="1" stop-color="white" stop-opacity="0.5"/>
</linearGradient>
</defs>
</svg>
