<svg xmlns="http://www.w3.org/2000/svg" width="114" height="29" viewBox="0 0 114 29">
  <path fill="#170B35" fill-rule="evenodd" d="M14.588,1453 L13.496,1449.696 L6.44,1449.696 L5.348,1453 L0.252,1453 L7.084,1433.288 L12.908,1433.288 L19.712,1453 L14.588,1453 Z M7.644,1446.056 L12.292,1446.056 L9.968,1439.056 L7.644,1446.056 Z M32.662,1448.072 C33.3526701,1447.4 33.698,1446.44801 33.698,1445.216 C33.698,1443.98399 33.3526701,1443.032 32.662,1442.36 C31.9713299,1441.688 31.1780045,1441.352 30.282,1441.352 C29.3859955,1441.352 28.5926701,1441.68333 27.902,1442.346 C27.2113299,1443.00867 26.866,1443.95599 26.866,1445.188 C26.866,1446.42001 27.2113299,1447.372 27.902,1448.044 C28.5926701,1448.716 29.3859955,1449.052 30.282,1449.052 C31.1780045,1449.052 31.9713299,1448.72534 32.662,1448.072 Z M26.866,1439.42 C27.9300053,1437.94533 29.4559901,1437.208 31.444,1437.208 C33.4320099,1437.208 35.1166598,1437.95933 36.498,1439.462 C37.8793402,1440.96467 38.57,1442.88265 38.57,1445.216 C38.57,1447.54934 37.8793402,1449.46266 36.498,1450.956 C35.1166598,1452.44934 33.4460098,1453.196 31.486,1453.196 C29.5259902,1453.196 27.9860056,1452.37467 26.866,1450.732 L26.866,1460.448 L22.078,1460.448 L22.078,1437.376 L26.866,1437.376 L26.866,1439.42 Z M52.22,1448.072 C52.9106701,1447.4 53.256,1446.44801 53.256,1445.216 C53.256,1443.98399 52.9106701,1443.032 52.22,1442.36 C51.5293299,1441.688 50.7360045,1441.352 49.84,1441.352 C48.9439955,1441.352 48.1506701,1441.68333 47.46,1442.346 C46.7693299,1443.00867 46.424,1443.95599 46.424,1445.188 C46.424,1446.42001 46.7693299,1447.372 47.46,1448.044 C48.1506701,1448.716 48.9439955,1449.052 49.84,1449.052 C50.7360045,1449.052 51.5293299,1448.72534 52.22,1448.072 Z M46.424,1439.42 C47.4880053,1437.94533 49.0139901,1437.208 51.002,1437.208 C52.9900099,1437.208 54.6746598,1437.95933 56.056,1439.462 C57.4373402,1440.96467 58.128,1442.88265 58.128,1445.216 C58.128,1447.54934 57.4373402,1449.46266 56.056,1450.956 C54.6746598,1452.44934 53.0040098,1453.196 51.044,1453.196 C49.0839902,1453.196 47.5440056,1452.37467 46.424,1450.732 L46.424,1460.448 L41.636,1460.448 L41.636,1437.376 L46.424,1437.376 L46.424,1439.42 Z M67.83,1453.196 C65.5526553,1453.196 63.6860073,1452.46334 62.23,1450.998 C60.7739927,1449.53266 60.046,1447.58668 60.046,1445.16 C60.046,1442.73332 60.7693261,1440.80134 62.216,1439.364 C63.6626739,1437.92666 65.5339885,1437.208 67.83,1437.208 C70.1260115,1437.208 72.0299924,1437.91733 73.542,1439.336 C75.0540076,1440.75467 75.81,1442.72399 75.81,1445.244 C75.81,1445.78534 75.772667,1446.28933 75.698,1446.756 L64.946,1446.756 C65.0393338,1447.44667 65.3473307,1448.01133 65.87,1448.45 C66.3926693,1448.88867 66.9573303,1449.108 67.564,1449.108 C68.1706697,1449.108 68.6233318,1449.04733 68.922,1448.926 C69.2206682,1448.80467 69.4399993,1448.68333 69.58,1448.562 C69.7200007,1448.44067 69.9019989,1448.24 70.126,1447.96 L75.306,1447.96 C74.8579978,1449.52801 73.9620067,1450.79266 72.618,1451.754 C71.2739933,1452.71534 69.6780092,1453.196 67.83,1453.196 Z M70.826,1443.76 C70.751333,1443.032 70.4340028,1442.43934 69.874,1441.982 C69.3139972,1441.52466 68.6513372,1441.296 67.886,1441.296 C67.1206628,1441.296 66.4766693,1441.52466 65.954,1441.982 C65.4313307,1442.43934 65.1046673,1443.032 64.974,1443.76 L70.826,1443.76 Z M83.692,1437.376 L83.692,1440.288 C84.8120056,1438.23466 86.305324,1437.208 88.172,1437.208 L88.172,1442.08 L86.996,1442.08 C85.8946612,1442.08 85.0686694,1442.34133 84.518,1442.864 C83.9673306,1443.38667 83.692,1444.30133 83.692,1445.608 L83.692,1453 L78.904,1453 L78.904,1437.376 L83.692,1437.376 Z M100.17,1448.1 C100.80467,1447.428 101.122,1446.45734 101.122,1445.188 C101.122,1443.91866 100.795337,1442.95267 100.142,1442.29 C99.4886634,1441.62733 98.7140045,1441.296 97.818,1441.296 C96.9219955,1441.296 96.1520032,1441.62733 95.508,1442.29 C94.8639968,1442.95267 94.542,1443.91866 94.542,1445.188 C94.542,1446.45734 94.87333,1447.428 95.536,1448.1 C96.19867,1448.772 96.9779955,1449.108 97.874,1449.108 C98.7700045,1449.108 99.5353302,1448.772 100.17,1448.1 Z M92.022,1450.984 C90.4539922,1449.50933 89.67,1447.56801 89.67,1445.16 C89.67,1442.75199 90.4539922,1440.82467 92.022,1439.378 C93.5900078,1437.93133 95.5313218,1437.208 97.846,1437.208 C100.160678,1437.208 102.097326,1437.93133 103.656,1439.378 C105.214674,1440.82467 105.994,1442.75199 105.994,1445.16 C105.994,1447.56801 105.219341,1449.50933 103.67,1450.984 C102.120659,1452.45867 100.188678,1453.196 97.874,1453.196 C95.5593218,1453.196 93.6086746,1452.45867 92.022,1450.984 Z M109.088,1453 L109.088,1432.28 L113.876,1432.28 L113.876,1453 L109.088,1453 Z" transform="translate(0 -1432)"/>
</svg>
