<svg width="27" height="26" viewBox="0 0 27 26" fill="none" xmlns="http://www.w3.org/2000/svg">
<path d="M25.2951 11.4293C26.1642 8.72636 24.2985 6.80559 23.2572 6.20256C23.3897 4.3334 21.9737 2.51388 19.9477 2.26224C19.3546 0.904798 18.0066 0 16.4889 0C15.2684 0 14.1929 0.588143 13.5 1.48401C12.8071 0.588143 11.7316 0 10.5111 0C8.99338 0 7.64537 0.904798 7.05176 2.26224C5.02577 2.51388 3.60976 4.3334 3.74228 6.20256C2.70099 6.80608 0.835809 8.72636 1.70438 11.4293C0.639761 12.28 0 13.5715 0 14.9393C0 16.5638 0.864099 18.0354 2.24636 18.837C2.1332 21.2283 4.06737 23.2389 6.46213 23.1773C7.1689 24.5362 8.57597 25.4118 10.1374 25.4118C11.5222 25.4118 12.7436 24.7268 13.5 23.6865C14.2564 24.7268 15.4778 25.4118 16.8626 25.4118C18.424 25.4118 19.8311 24.5362 20.5379 23.1773C22.9326 23.2389 24.8663 21.2278 24.7536 18.837C26.1359 18.0354 27 16.5638 27 14.9393C27 13.5715 26.3602 12.28 25.2951 11.4293ZM12.7029 6.85274C12.7029 8.14765 11.8065 9.22914 10.601 9.53487C10.4288 9.57855 10.3116 9.73787 10.3116 9.91506V10.7181C10.3116 10.9697 10.5444 11.1603 10.7921 11.1097C11.5083 10.9638 12.1589 10.6427 12.7029 10.197V21.2675C12.7029 22.6765 11.5524 23.8235 10.1374 23.8235C8.55463 23.8235 7.94217 22.741 7.50193 21.4312C6.69342 21.5672 6.59415 21.5901 6.40108 21.5901C4.98607 21.5901 3.83559 20.4431 3.83559 19.034C3.83559 18.7258 3.87827 18.5804 4.01774 17.894C2.75509 17.3728 1.59369 16.6924 1.59369 14.9393C1.59369 13.2588 2.73574 12.6091 3.72342 12.0438C3.09805 10.7677 3.08812 10.5945 3.08812 10.1002C3.08812 8.41715 4.17507 7.695 5.53847 7.13763C5.4139 6.59664 5.33002 6.31324 5.33002 6.00551C5.33002 4.80739 6.30281 3.83162 7.5873 3.83162H7.60765L8.23947 3.84502C8.53279 2.70596 8.98544 1.58824 10.5111 1.58824C11.7192 1.58824 12.7029 2.56748 12.7029 3.77206V6.85274ZM22.9823 17.894C23.1217 18.5804 23.1644 18.7258 23.1644 19.034C23.1644 20.4431 22.0139 21.5901 20.5989 21.5901C20.4063 21.5901 20.3071 21.5672 19.4981 21.4312C19.0578 22.741 18.4454 23.8235 16.8626 23.8235C15.4476 23.8235 14.2971 22.6765 14.2971 21.2675V10.197C14.8411 10.6427 15.4917 10.9638 16.2079 11.1097C16.4556 11.1603 16.6884 10.9697 16.6884 10.7181V9.91506C16.6884 9.73787 16.5712 9.57855 16.399 9.53487C15.1935 9.22914 14.2971 8.14765 14.2971 6.85274V3.77206C14.2971 2.56748 15.2808 1.58824 16.4889 1.58824C18.0146 1.58824 18.4672 2.70596 18.76 3.84502L19.3919 3.83162H19.4122C20.6967 3.83162 21.6695 4.80739 21.6695 6.00551C21.6695 6.31324 21.5851 6.59713 21.461 7.13763C22.8239 7.6945 23.9114 8.41715 23.9114 10.1002C23.9114 10.5945 23.9015 10.7677 23.2761 12.0438C24.2638 12.6091 25.4058 13.2588 25.4058 14.9393C25.4058 16.6928 24.2449 17.3733 22.9823 17.894Z" fill="#F61067"/>
</svg>
