<svg width="27" height="22" viewBox="0 0 27 22" fill="none" xmlns="http://www.w3.org/2000/svg">
<path d="M26.7637 10.4241L22.1632 3.00036C22.0294 2.80039 21.8147 2.69999 21.6 2.69999C21.3852 2.69999 21.1705 2.80039 21.0368 3.00036L16.4362 10.4241C16.273 10.6679 16.1793 10.9607 16.2038 11.2526C16.4346 14.0231 18.7624 16.1999 21.6 16.1999C24.4375 16.1999 26.7654 14.0231 26.9961 11.2526C27.0206 10.9607 26.927 10.6679 26.7637 10.4241ZM21.6 14.8499C19.8458 14.8499 18.3283 13.7054 17.7702 12.1499H25.4145C24.8484 13.7206 23.3415 14.8499 21.6 14.8499ZM17.7917 10.8L21.6017 4.65073L25.4382 10.8H17.7917ZM22.6125 20.2499H14.175V5.30463C15.1154 5.06121 15.8503 4.32884 16.0996 3.39102L22.3555 1.29768C22.5323 1.23862 22.6276 1.04709 22.5686 0.870746L22.3543 0.230765C22.2952 0.0539998 22.1037 -0.0413436 21.9273 0.0177187L16.0878 1.97141C15.7684 0.836574 14.7369 0 13.5 0C12.0087 0 10.8 1.20867 10.8 2.69999C10.8 3.04635 10.8705 3.37414 10.9915 3.67662L4.64446 5.80033C4.4677 5.8594 4.37235 6.05093 4.43142 6.22727L4.64573 6.86725C4.70479 7.04402 4.89632 7.13936 5.07266 7.0803L11.8416 4.81568C12.1293 5.04181 12.4605 5.20971 12.8254 5.30421V21.2624C12.8254 21.4489 12.9765 21.5999 13.1629 21.5999H22.6129C22.7994 21.5999 22.9504 21.4489 22.9504 21.2624V20.5874C22.95 20.4009 22.7989 20.2499 22.6125 20.2499ZM12.15 2.69999C12.15 1.9558 12.7558 1.34999 13.5 1.34999C14.2442 1.34999 14.85 1.9558 14.85 2.69999C14.85 3.44417 14.2442 4.04998 13.5 4.04998C12.7558 4.04998 12.15 3.44417 12.15 2.69999ZM5.96324 8.40034C5.8295 8.19995 5.61477 8.09996 5.40004 8.09996C5.1853 8.09996 4.97057 8.20037 4.83684 8.40034L0.236309 15.824C0.0730443 16.0679 -0.0206116 16.3607 0.00385708 16.6526C0.234622 19.423 2.56252 21.5999 5.40004 21.5999C8.23756 21.5999 10.5655 19.423 10.7962 16.6526C10.8207 16.3607 10.727 16.0679 10.5638 15.824L5.96324 8.40034ZM5.40004 20.2499C3.64589 20.2499 2.12841 19.1054 1.57027 17.5499H9.21461C8.64846 19.1206 7.14153 20.2499 5.40004 20.2499ZM1.59179 16.1999L5.40172 10.0507L9.23824 16.1999H1.59179Z" fill="#F61067"/>
</svg>
