<svg width="24" height="26" viewBox="0 0 24 26" fill="none" xmlns="http://www.w3.org/2000/svg">
<path fill-rule="evenodd" clip-rule="evenodd" d="M12 0C6.97964 0 1.75781 1.12354 1.75781 1.12354C0.734741 1.3303 0.00109512 2.21819 0 3.25V11.0965C0 22.361 10.9325 25.7228 10.9325 25.7228C11.2586 25.9045 11.6261 26 12 26C12.3724 25.9992 12.7384 25.9038 13.0632 25.7228C13.0686 25.7228 24 22.361 24 11.0965V3.25C24.0005 2.2153 23.2643 1.32462 22.2422 1.12354C22.2422 1.12354 17.0204 0 12 0ZM12 5.45339C9.76351 5.45339 8.9465 5.744 8.79025 5.81106C8.26457 5.98858 7.48596 6.2542 7.1483 6.9051C6.91923 7.34824 5.41234 11.3339 5.24153 11.7862L5.22034 11.8493V15.8889C5.22034 16.4451 5.67717 16.8988 6.23729 16.8988H7.59322C8.15334 16.8988 8.61017 16.4451 8.61017 15.8889V15.5523H15.3898V15.8889C15.3898 16.4451 15.8467 16.8988 16.4068 16.8988H17.7627C18.3228 16.8988 18.7797 16.4451 18.7797 15.8889V11.8493L18.7585 11.7862C18.7227 11.6915 18.2407 10.441 17.7627 9.21943L17.7614 9.21662L17.7597 9.21232C17.7582 9.20838 17.7571 9.20444 17.756 9.2005L17.7544 9.19478L17.7521 9.18787C17.3549 8.17272 16.9656 7.18782 16.8411 6.9051C16.5564 6.26472 15.7725 5.97411 15.1992 5.81106C15.023 5.73874 14.1968 5.45339 12 5.45339ZM14.9343 6.43172C14.9317 6.4304 14.2206 6.12665 12 6.12665C9.80019 6.12665 9.07528 6.42345 9.05546 6.43157L9.05508 6.43172L9.0233 6.44224C8.6009 6.58425 7.96796 6.80517 7.75212 7.22069C7.66737 7.38375 7.32971 8.23189 6.93644 9.25099L6.90466 9.3141L6.90429 9.315C6.82205 9.51523 6.65066 9.93248 6.80932 10.1662C6.94439 10.3674 7.35487 10.5028 7.9322 10.5028H16.0678C16.6451 10.5028 17.0331 10.3976 17.1695 10.1978C17.3019 10.0018 17.2105 9.67835 17.1271 9.46138C17.1225 9.44954 17.1169 9.43704 17.1112 9.42455C17.1056 9.41206 17.1 9.39957 17.0953 9.38774C17.0918 9.37936 17.0905 9.37172 17.0893 9.36442C17.0883 9.35799 17.0872 9.35183 17.0847 9.34566L17.053 9.28255C16.6809 8.33052 16.33 7.43503 16.2161 7.17861C16.0248 6.74636 15.2489 6.52678 14.9903 6.4536L14.9873 6.45276L14.9343 6.43172ZM5.25212 9.15631C4.22722 9.15631 3.86441 9.78223 3.86441 10.3661C3.86441 10.6501 3.99285 11.1077 4.75424 11.1656C4.82234 10.9862 4.89666 10.7895 4.97525 10.5815C5.14268 10.1385 5.32951 9.64403 5.51695 9.15631H5.25212ZM18.8054 10.0363L18.8026 10.029L18.802 10.0275C18.6937 9.75033 18.5781 9.45426 18.4619 9.15631H18.7479C19.7728 9.15631 20.1356 9.78223 20.1356 10.3661C20.1356 10.6514 20.0098 11.109 19.2458 11.1656C19.1386 10.8894 18.982 10.4883 18.8054 10.0363ZM8.61017 11.8493C9.17161 11.8493 9.62712 12.3017 9.62712 12.8592C9.62712 13.4168 9.17161 13.8691 8.61017 13.8691C8.11377 13.8691 7.92273 13.7597 7.49012 13.5118C7.42767 13.476 7.36018 13.4374 7.28602 13.3957C6.89274 13.1748 6.57627 12.9631 6.57627 12.5226C6.57627 12.1505 6.8795 11.8493 7.25424 11.8493H8.61017ZM16.7458 11.8493H15.3898C14.8284 11.8493 14.3729 12.3017 14.3729 12.8592C14.3729 13.4168 14.8284 13.8691 15.3898 13.8691C15.8875 13.8691 16.0793 13.7591 16.5136 13.5099C16.5751 13.4746 16.6413 13.4366 16.714 13.3957C17.1073 13.1748 17.4237 12.9631 17.4237 12.5226C17.4237 12.1505 17.1205 11.8493 16.7458 11.8493Z" fill="white"/>
</svg>
