<svg width="745" height="753" viewBox="0 0 745 753" fill="none" xmlns="http://www.w3.org/2000/svg">
<path fill-rule="evenodd" clip-rule="evenodd" d="M659.888 462.83C633.832 519.43 566.688 539.381 512.674 570.445C468.09 596.086 423.5 615.858 373.423 627.58C311.92 641.976 247.886 670.178 189.492 646.093C127.312 620.447 80.6538 562.05 59.6334 498.157C39.1154 435.792 60.4402 370.177 77.8941 306.885C95.2129 244.084 111.612 178.529 159.851 134.746C209.629 89.5662 276.814 68.6315 343.96 65.3969C410.9 62.1724 477.633 79.3638 533.246 116.759C588.248 153.743 627.558 209.164 650.336 271.408C672.841 332.909 687.273 403.342 659.888 462.83Z" fill="url(#paint0_linear)"/>
<defs>
<linearGradient id="paint0_linear" x1="368.758" y1="939.483" x2="984.41" y2="474.846" gradientUnits="userSpaceOnUse">
<stop stop-color="#401381"/>
<stop offset="1" stop-color="#D11137"/>
</linearGradient>
</defs>
</svg>
