<svg width="49" height="90" viewBox="0 0 49 90" fill="none" xmlns="http://www.w3.org/2000/svg">
<path d="M14 0C12.3022 0.000673361 10.8498 1.20629 10.5547 2.85983L0.123047 47.5353L0.129883 47.5421C0.0450387 47.8414 0.00135159 48.1507 0 48.4615C0 50.3733 1.567 51.9231 3.5 51.9231H22.75L17.5684 85.8489C17.5223 86.0759 17.4994 86.3069 17.5 86.5385C17.5 88.4502 19.067 90 21 90C22.296 89.998 23.4849 89.2879 24.0898 88.1543H24.0967L48.3232 43.5802L48.2891 43.5194C48.7033 42.9507 49 42.2924 49 41.5385C49 39.6277 47.432 38.0769 45.5 38.0769H26.25L38.1924 4.88131C38.3953 4.43488 38.5001 3.95098 38.5 3.46154C38.5 1.54978 36.933 0 35 0H14Z" fill="url(#paint0_linear)"/>
<defs>
<linearGradient id="paint0_linear" x1="24.5" y1="135" x2="100.093" y2="93.8439" gradientUnits="userSpaceOnUse">
<stop stop-color="#FF8E64"/>
<stop offset="1" stop-color="#FFE641"/>
</linearGradient>
</defs>
</svg>
