<svg width="94" height="83" viewBox="0 0 94 83" fill="none" xmlns="http://www.w3.org/2000/svg">
<path fill-rule="evenodd" clip-rule="evenodd" d="M32.5667 7.21728C35.9746 2.68182 41.3201 0.00886293 47 0C52.6799 0.00886293 58.0254 2.68182 61.4333 7.21728H68.6923C76.6787 7.21728 83.1538 13.6804 83.1538 21.6518V28.8691C75.1675 28.8691 68.6923 35.3322 68.6923 43.3037V46.9123H25.3077V43.3037C25.3077 35.3322 18.8325 28.8691 10.8462 28.8691V21.6518C10.8462 13.6804 17.3213 7.21728 25.3077 7.21728H32.5667ZM0 43.3037C0 39.3177 3.23733 36.0864 7.23077 36.0864H10.8462C14.8412 36.0864 18.0769 39.3161 18.0769 43.3037V54.1296H75.9231V43.3037C75.9231 39.3161 79.1588 36.0864 83.1538 36.0864H86.7692C90.7627 36.0864 94 39.3177 94 43.3037C93.9954 45.8776 92.6179 48.2543 90.3846 49.5413V61.3469C90.3846 67.4344 86.5961 72.6167 81.2544 74.7383L82.7725 77.776C83.3505 78.9293 83.2681 80.3028 82.5563 81.379C81.8445 82.4552 80.6115 83.0705 79.3219 82.9932C78.0323 82.9158 76.882 82.1576 76.3044 81.0041L73.6917 75.7814H20.3083L17.6956 81.0041C17.1181 82.1577 15.9678 82.9161 14.6781 82.9935C13.3884 83.0709 12.1553 82.4555 11.4435 81.3792C10.7317 80.3029 10.6493 78.9294 11.2275 77.776L12.7456 74.7383C7.40389 72.6167 3.61538 67.4344 3.61538 61.3469V49.5483C1.37995 48.2601 0.002042 45.8801 0 43.3037Z" fill="url(#paint0_linear)"/>
<defs>
<linearGradient id="paint0_linear" x1="47" y1="124.5" x2="129.361" y2="31.2233" gradientUnits="userSpaceOnUse">
<stop stop-color="#5134B2"/>
<stop offset="1" stop-color="#B175EB"/>
</linearGradient>
</defs>
</svg>
