<svg width="94" height="90" viewBox="0 0 94 90" fill="none" xmlns="http://www.w3.org/2000/svg">
<path fill-rule="evenodd" clip-rule="evenodd" d="M37.9602 0C30.9719 0 25.3068 5.6412 25.3068 12.6C25.3068 16.1316 26.7769 19.314 29.1268 21.6H46.8007C49.147 19.314 50.6136 16.1316 50.6136 12.6C50.6136 5.6412 44.9485 0 37.9602 0ZM83.1509 21.6L66.4021 27.1617C62.8119 25.4521 58.8902 24.1044 54.709 23.175C53.892 24.4494 52.9699 25.6597 51.8564 26.7469L49.7451 28.8H26.1753L24.0641 26.7469C23.3049 26.0053 22.6735 25.1842 22.0517 24.3563C13.1382 27.6208 6.74202 33.8629 4.52613 43.3195C4.22885 43.2413 3.92275 43.2011 3.61526 43.2C1.61861 43.2 0 44.8118 0 46.8C0 48.7882 1.61861 50.4 3.61526 50.4H3.65056C3.64953 50.4802 3.64125 50.5554 3.63297 50.6307C3.62411 50.7111 3.61526 50.7916 3.61526 50.8781C3.61526 56.2675 5.00338 61.6392 7.64712 66.5227L10.9729 86.3789C11.3199 88.4705 13.1297 90 15.2519 90H25.2715C27.3973 90 29.2105 88.4705 29.5576 86.3789L29.9318 84.157C34.485 85.5713 39.5594 86.4 45.1907 86.4C49.2908 86.4 53.2094 86.0305 56.9121 85.3594L58.8821 88.3688C59.5509 89.3876 60.6893 90 61.9113 90H72.3052C74.5864 90 76.2981 87.9253 75.8498 85.6969L74.4305 78.6586C78.6043 75.8791 81.8676 72.4109 83.9912 68.3719H87.1051C89.1008 68.3719 90.8396 67.0213 91.3277 65.0953L93.8696 54.9563C94.4192 52.7639 93.1858 50.5151 91.0311 49.8023L85.467 47.9531C84.1488 43.4815 81.8465 39.5513 78.7943 36.1688C81.0998 32.6335 83.1509 27.8342 83.1509 21.6ZM75.9204 48.6C75.9204 45.6192 73.491 43.2 70.4975 43.2C67.5041 43.2 65.0747 45.6192 65.0747 48.6C65.0747 51.5808 67.5041 54 70.4975 54C73.491 54 75.9204 51.5808 75.9204 48.6Z" fill="url(#paint0_linear)"/>
<defs>
<linearGradient id="paint0_linear" x1="47" y1="135" x2="136.915" y2="41.0888" gradientUnits="userSpaceOnUse">
<stop stop-color="#F23673"/>
<stop offset="1" stop-color="#FFC066"/>
</linearGradient>
</defs>
</svg>
