<svg width="94" height="94" viewBox="0 0 94 94" fill="none" xmlns="http://www.w3.org/2000/svg">
<path fill-rule="evenodd" clip-rule="evenodd" d="M88.1961 40.5768L91.4827 42.5473C94.8415 44.5648 94.8415 49.4388 91.4682 51.4563L88.1817 53.4305C86.7824 54.2693 85.8388 55.6541 85.4085 57.2269C85.4035 57.2404 85.3992 57.2539 85.3953 57.2675C85.3909 57.2829 85.3871 57.2983 85.3832 57.3137C84.9457 58.9046 85.0759 60.5931 85.8749 62.0357L87.7369 65.3875C89.6387 68.8151 87.2018 73.0346 83.2826 73.0997L79.4139 73.1647C77.7761 73.19 76.2576 73.9168 75.1006 75.0774L75.0644 75.1136C73.9074 76.2706 73.1807 77.7892 73.1518 79.4271L73.0867 83.2922C73.0216 87.2116 68.8023 89.6486 65.3747 87.7467L62.0231 85.8846C60.5805 85.0856 58.8884 84.9554 57.3012 85.3929C57.2723 85.4038 57.2433 85.411 57.2144 85.4182C55.6416 85.8449 54.2569 86.7922 53.4181 88.1914L51.4476 91.4781C49.4301 94.8406 44.5599 94.8406 42.5425 91.4781L40.572 88.1914C39.7332 86.7922 38.3484 85.8485 36.7757 85.4182C36.7467 85.4074 36.7178 85.4001 36.6889 85.3929C35.098 84.9554 33.406 85.0856 31.967 85.8846L28.6153 87.7467C25.1878 89.6486 20.9684 87.2116 20.9034 83.2922L20.8383 79.4271C20.813 77.7892 20.0862 76.2706 18.9256 75.1136L18.8895 75.0774C17.7325 73.9204 16.214 73.1937 14.5761 73.1647L10.7075 73.0997C6.78821 73.0346 4.35132 68.8151 6.25311 65.3875L8.11512 62.0285C8.91416 60.5859 9.04432 58.8973 8.60684 57.3064C8.59599 57.2775 8.58876 57.2486 8.58153 57.2197C8.15489 55.6469 7.20762 54.2621 5.80839 53.4232L2.52185 51.4491C-0.840617 49.4352 -0.840617 44.5612 2.52185 42.5437L5.80839 40.5732C7.20762 39.7343 8.15128 38.3495 8.58153 36.7767C8.59237 36.7478 8.59961 36.7189 8.60684 36.6899C9.04432 35.099 8.91416 33.4105 8.11512 31.9679L6.25311 28.6162C4.34771 25.1885 6.78459 20.969 10.7075 20.9003L14.5761 20.8353C16.214 20.8099 17.7325 20.0832 18.8895 18.9226L18.9256 18.8864C20.0826 17.7294 20.8093 16.2108 20.8383 14.5729L20.9034 10.7042C20.9684 6.78479 25.1878 4.34783 28.6153 6.25329L31.9561 8.10812C33.4096 8.91442 35.1125 9.04458 36.7142 8.60347C36.7232 8.60166 36.7314 8.59895 36.7395 8.59624C36.7476 8.59353 36.7558 8.59081 36.7648 8.58901C38.3484 8.15513 39.744 7.20421 40.5901 5.7941L42.5533 2.52192C44.5708 -0.840641 49.441 -0.840641 51.4584 2.52192L53.4289 5.80856C54.2677 7.20782 55.6525 8.15151 57.2253 8.58178C57.2542 8.59262 57.2831 8.59985 57.312 8.60707L57.312 8.60709C58.9029 9.04458 60.595 8.91442 62.0339 8.11536L65.3856 6.25329C68.8131 4.34783 73.0325 6.78479 73.1012 10.7114L73.1662 14.5802C73.1916 16.2181 73.9183 17.7366 75.0789 18.8936L75.115 18.9298C76.272 20.0868 77.7905 20.8136 79.4284 20.8425L83.297 20.9076C87.2163 20.9727 89.6532 25.1921 87.7514 28.6198L85.8894 31.9715C85.0904 33.4141 84.9602 35.1063 85.3977 36.6936C85.4085 36.7225 85.4158 36.7514 85.423 36.7803C85.8496 38.3531 86.7969 39.7379 88.1961 40.5768ZM43.9164 62.4298L67.6344 38.7111C69.0481 37.2974 69.0481 35.0123 67.6344 33.5985C66.2208 32.1848 63.9357 32.1848 62.522 33.5985L41.3602 54.761L31.4319 44.8324C30.0182 43.4187 27.7331 43.4187 26.3195 44.8324C24.9058 46.2461 24.9058 48.5312 26.3195 49.945L38.804 62.4298C39.4801 63.1096 40.4021 63.4892 41.3602 63.4892C42.3183 63.4892 43.2367 63.1096 43.9164 62.4298Z" fill="url(#paint0_linear)"/>
<defs>
<linearGradient id="paint0_linear" x1="47" y1="141" x2="141" y2="47" gradientUnits="userSpaceOnUse">
<stop stop-color="#009FC5"/>
<stop offset="1" stop-color="#3CECB0"/>
</linearGradient>
</defs>
</svg>
