<svg width="78" height="68" viewBox="0 0 78 68" fill="none" xmlns="http://www.w3.org/2000/svg">
<path fill-rule="evenodd" clip-rule="evenodd" d="M23.4563 3.49343L21.1867 1.88786L21.1089 1.82938L20.9627 1.7709L19.3067 0.982814L19.3555 1.09947C17.7871 0.457116 16.141 0 14.3486 0C6.41943 0 0 6.66568 0 14.8883C0 23.1108 6.42893 29.7765 14.3486 29.7765C16.891 29.7765 19.2387 29.0371 21.3133 27.8305C20.6023 35.7903 16.5888 47.3995 1.88001 59.2419C-0.175312 60.8962 -0.55536 63.9711 1.04237 66.1023C1.97747 67.3577 3.37047 68 4.77328 68C5.78623 68 6.79948 67.6595 7.66623 66.9783C25.7164 52.4207 30.2264 37.4743 30.8304 27.4903C31.863 14.7232 27.9862 8.00886 24.4404 4.50594L23.4563 3.49343Z" fill="#E5E5E5"/>
<path fill-rule="evenodd" clip-rule="evenodd" d="M71.425 4.50533L70.432 3.49343L68.1734 1.88786L68.0956 1.82938L67.9397 1.7709L66.2847 0.982814L66.3334 1.09947C64.7661 0.457116 63.1112 0 61.32 0C53.4056 0 47 6.66568 47 14.8883C47 23.1108 53.4056 29.7765 61.3396 29.7765C63.8803 29.7765 66.2265 29.0371 68.2999 27.8305C67.5991 35.7903 63.5881 47.3995 48.8886 59.2419C46.8248 60.8962 46.4548 63.9711 48.0515 66.1023C48.986 67.3577 50.3781 68 51.7801 68C52.7924 68 53.805 67.6595 54.6712 66.9783C72.7197 52.4207 77.2171 37.4743 77.8306 27.4903C78.8625 14.7229 74.9881 8.00855 71.425 4.50533Z" fill="#E5E5E5"/>
</svg>
