<svg version="1.1" id="Шар_1" xmlns="http://www.w3.org/2000/svg" xmlns:xlink="http://www.w3.org/1999/xlink" x="0" y="0" viewBox="0 0 579.4 110.7" xml:space="preserve"><style>.st1{enable-background:new}.st2{fill:#856e19}.st3{fill:#6c5915}.st4{fill:#ba9923}.st6{fill:#8a721a}.st7{fill:#8f751b}.st8{fill:#866e19}.st9{fill:#826b19}.st10{fill:#7d6718}.st11{fill:#796417}.st12{fill:#756016}.st13{fill:#705d15}.st25{fill:#999}.st26{fill:#949494}.st27{fill:#8f8f8f}.st28{fill:#8a8a8a}.st29{fill:#858585}.st30{fill:gray}.st33{fill:#9e9e9e}.st34{fill:#a3a3a3}.st35{fill:#a8a8a8}.st37{fill:#dbdbdb}</style><path fill="none" d="M0 5h579.4v203H0z"/><g class="st1"><path class="st2" d="M44.4 48l-4.3-6.1h23.7l4.3 6.1z"/><path class="st3" d="M5.4 110.4l-4.3-6.1L2.2 2l4.3 6.1z"/><path class="st2" d="M6.5 8.1L2.2 2h65l4.3 6.1z"/><path class="st4" d="M71.5 8.1l-.2 20.4H44.6L44.4 48h23.7l-.2 19.4H44.2l-.4 43H5.4L6.5 8.1z"/></g><g class="st1"><g class="st1"><defs><path id="SVGID_1_" class="st1" d="M118.5 93.5l-4.3-6.1c.8 1.1 2.3 1.7 4.6 1.7 2.6 0 4.3-.8 5-2.4.7-1.6 1.2-5.4 1.2-11.4l4.3 6.1c-.1 6-.5 9.8-1.2 11.4-.7 1.6-2.4 2.4-5 2.4-2.3 0-3.8-.5-4.6-1.7z"/></defs><clipPath id="SVGID_2_"><use xlink:href="#SVGID_1_" overflow="visible"/></clipPath><g clip-path="url(#SVGID_2_)"><path class="st6" d="M118.5 93.5l-4.3-6.1c.1.1.1.2.2.3l4.3 6.1c-.1-.1-.2-.2-.2-.3"/><path class="st7" d="M118.7 93.8l-4.3-6.1c.3.4.7.6 1.2.9l4.3 6.1c-.5-.3-.9-.5-1.2-.9"/><path class="st6" d="M119.9 94.7l-4.3-6.1c.4.2.8.3 1.3.4l4.3 6.1c-.5-.1-.9-.3-1.3-.4"/><path class="st8" d="M121.2 95l-4.3-6.1c.5.1 1 .1 1.5.2l4.3 6.1c-.6 0-1.1-.1-1.5-.2"/><path class="st9" d="M122.7 95.2l-4.3-6.1h.4c.4 0 .8 0 1.2-.1l4.3 6.1c-.4 0-.8.1-1.2.1h-.4"/><path class="st10" d="M124.3 95.1L120 89c.4 0 .7-.1 1-.2l4.3 6.1c-.3.1-.7.2-1 .2"/><path class="st11" d="M125.3 95l-4.3-6.1c.3-.1.5-.2.8-.3l4.3 6.1c-.3.1-.5.2-.8.3"/><path class="st12" d="M126.1 94.7l-4.3-6.1c.2-.1.5-.2.7-.3l4.3 6.1c-.3.1-.5.2-.7.3"/><path class="st13" d="M126.7 94.4l-4.3-6.1c.6-.4 1.1-.9 1.4-1.6.7-1.6 1.2-5.4 1.2-11.4l4.3 6.1c-.1 6-.5 9.8-1.2 11.4-.3.7-.8 1.2-1.4 1.6"/></g></g><path class="st3" d="M129.3 81.4l-4.3-6.1.5-47 4.3 6.1z"/><g class="st1"><defs><path id="SVGID_3_" class="st1" d="M83.2 97.9l-4.3-6.1c-1.8-2.5-2.8-5.1-3.3-7.8-.7-4.2-1-11.6-.9-22.1L79 68c-.1 10.5.2 17.9.9 22.1.5 2.7 1.6 5.3 3.3 7.8z"/></defs><clipPath id="SVGID_4_"><use xlink:href="#SVGID_3_" overflow="visible"/></clipPath><g clip-path="url(#SVGID_4_)"><path class="st13" d="M83.2 97.9l-4.3-6.1c-1.8-2.5-2.8-5.1-3.3-7.8-.7-4.2-1-11.6-.9-22.1L79 68c-.1 10.5.2 17.9.9 22.1.5 2.7 1.6 5.3 3.3 7.8"/></g></g><g class="st1"><defs><path id="SVGID_5_" class="st1" d="M124.3 18.9l4.3 6.1c.1.1.1.2.2.3.7 1.3 1.1 4.4 1 9.1l-4.3-6.1c.1-4.8-.3-7.8-1-9.1-.1-.2-.2-.3-.2-.3z"/></defs><clipPath id="SVGID_6_"><use xlink:href="#SVGID_5_" overflow="visible"/></clipPath><g clip-path="url(#SVGID_6_)"><path class="st13" d="M129.8 34.4l-4.3-6.1c.1-4.8-.3-7.8-1-9.1-.1-.1-.1-.2-.2-.3l4.3 6.1c.1.1.1.2.2.3.7 1.3 1.1 4.3 1 9.1"/></g></g><path class="st3" d="M79 68l-4.3-6.1.2-17.5 4.3 6.1z"/><g class="st1"><defs><path id="SVGID_7_" class="st1" d="M159.6 14.5l4.3 6.1c-.9-1.3-2.1-2.6-3.4-3.9-3.8-3.6-8.8-6.3-15.1-8.1-6.3-1.8-13.4-2.7-21.3-2.7-8.3 0-15.6.9-21.9 2.8-6.3 1.9-11.3 4.6-15 8.1-3.7 3.5-5.9 7.5-6.7 11.7-.7 4.3-1.2 11.6-1.3 21.8l-4.3-6.1c.1-10.3.5-17.6 1.3-21.8.7-4.3 3-8.2 6.7-11.7s8.7-6.3 15-8.1c6.3-1.9 13.6-2.8 21.9-2.8 7.9 0 15 .9 21.3 2.7 6.3 1.8 11.3 4.5 15.1 8.1 1.3 1.2 2.4 2.5 3.4 3.9z"/></defs><clipPath id="SVGID_8_"><use xlink:href="#SVGID_7_" overflow="visible"/></clipPath><g clip-path="url(#SVGID_8_)"><path class="st13" d="M79.2 50.5l-4.3-6.1c.1-10.3.5-17.6 1.3-21.8.7-4.3 3-8.2 6.7-11.7 1.4-1.3 2.9-2.5 4.6-3.6l4.3 6.1c-1.7 1.1-3.3 2.3-4.6 3.6-3.7 3.5-5.9 7.5-6.7 11.7-.7 4.2-1.2 11.5-1.3 21.8"/><path class="st12" d="M91.8 13.4l-4.3-6.1c1.7-1.1 3.6-2.1 5.7-2.9l4.3 6.1c-2 .8-3.9 1.8-5.7 2.9"/><path class="st11" d="M97.6 10.4l-4.3-6.1c1.5-.6 3-1.2 4.6-1.6.8-.2 1.6-.5 2.4-.7l4.3 6.1c-.8.2-1.6.4-2.4.7-1.6.5-3.2 1-4.6 1.6"/><path class="st10" d="M104.6 8.1L100.3 2c2.8-.7 5.9-1.3 9.1-1.6l4.3 6.1c-3.2.4-6.3.9-9.1 1.6"/><path class="st9" d="M113.7 6.5L109.4.4c3.3-.4 6.8-.6 10.4-.6h2.8l4.3 6.1h-2.8c-3.7 0-7.1.2-10.4.6"/><path class="st8" d="M126.9 6l-4.3-6.1c4.6.1 8.9.6 12.9 1.3l4.3 6.1c-4-.8-8.3-1.2-12.9-1.3"/><path class="st6" d="M139.8 7.3l-4.3-6.1c1.9.4 3.8.8 5.6 1.3 2.1.6 4.1 1.3 6 2.1l4.3 6.1c-1.8-.8-3.8-1.5-6-2.1-1.8-.5-3.7-.9-5.6-1.3"/><path class="st7" d="M151.3 10.8L147 4.7c3.6 1.6 6.6 3.6 9.1 5.9.6.6 1.2 1.1 1.7 1.7l4.3 6.1c-.5-.6-1.1-1.2-1.7-1.7-2.4-2.4-5.5-4.4-9.1-5.9"/><path class="st6" d="M162.2 18.4l-4.3-6.1c.6.7 1.2 1.4 1.7 2.2l4.3 6.1c-.5-.8-1.1-1.5-1.7-2.2"/></g></g><path class="st4" d="M167.2 28.4c.7 4.2 1 11.6.9 22.1l-.3 17.5c-.1 10.3-.5 17.6-1.3 21.8-.7 4.3-3 8.2-6.7 11.7s-8.7 6.3-15 8.1-13.6 2.8-21.9 2.8c-7.9 0-15-.9-21.3-2.7-6.3-1.8-11.3-4.5-15.1-8.1-3.8-3.6-6-7.5-6.7-11.7-.7-4.2-1-11.6-.9-22.1l.2-17.5c.1-10.3.5-17.6 1.3-21.8.7-4.3 3-8.2 6.7-11.7s8.7-6.3 15-8.1c6.3-1.9 13.6-2.8 21.9-2.8 7.9 0 15 .9 21.3 2.7 6.3 1.8 11.3 4.5 15.1 8.1 3.9 3.6 6.1 7.5 6.8 11.7zm-37.9 53l.5-47c.1-4.8-.3-7.8-1-9.1-.7-1.3-2.3-2-4.7-2-2 0-3.5.5-4.6 1.6-1.1 1.1-1.6 4.2-1.7 9.5l-.5 47.8c-.1 5.9.2 9.6.9 11 .7 1.4 2.3 2.1 4.9 2.1 2.6 0 4.3-.8 5-2.4.7-1.7 1.2-5.5 1.2-11.5"/></g><g class="st1"><g class="st1"><defs><path id="SVGID_9_" class="st1" d="M220.5 93.5l-4.3-6.1c.8 1.1 2.3 1.7 4.6 1.7 2.6 0 4.3-.8 5-2.4.7-1.6 1.2-5.4 1.2-11.4l4.3 6.1c-.1 6-.5 9.8-1.2 11.4-.8 1.6-2.4 2.4-5 2.4-2.3 0-3.8-.5-4.6-1.7z"/></defs><clipPath id="SVGID_10_"><use xlink:href="#SVGID_9_" overflow="visible"/></clipPath><g clip-path="url(#SVGID_10_)"><path class="st6" d="M220.5 93.5l-4.3-6.1c.1.1.1.2.2.3l4.3 6.1c-.1-.1-.2-.2-.2-.3"/><path class="st7" d="M220.7 93.8l-4.3-6.1c.3.4.7.6 1.2.9l4.3 6.1c-.5-.3-.9-.5-1.2-.9"/><path class="st6" d="M221.9 94.7l-4.3-6.1c.4.2.8.3 1.3.4l4.3 6.1c-.5-.1-.9-.3-1.3-.4"/><path class="st8" d="M223.2 95l-4.3-6.1c.5.1 1 .1 1.5.2l4.3 6.1c-.6 0-1.1-.1-1.5-.2"/><path class="st9" d="M224.7 95.2l-4.3-6.1h.4c.4 0 .8 0 1.2-.1l4.3 6.1c-.4 0-.8.1-1.2.1h-.4"/><path class="st10" d="M226.3 95.1L222 89c.4 0 .7-.1 1-.2l4.3 6.1c-.3.1-.7.2-1 .2"/><path class="st11" d="M227.3 95l-4.3-6.1c.3-.1.5-.2.8-.3l4.3 6.1c-.3.1-.5.2-.8.3"/><path class="st12" d="M228.1 94.7l-4.3-6.1c.2-.1.5-.2.7-.3l4.3 6.1c-.3.1-.5.2-.7.3"/><path class="st13" d="M228.7 94.4l-4.3-6.1c.6-.4 1.1-.9 1.4-1.6.7-1.6 1.2-5.4 1.2-11.4l4.3 6.1c-.1 6-.5 9.8-1.2 11.4-.3.7-.7 1.2-1.4 1.6"/></g></g><path class="st3" d="M231.3 81.4l-4.3-6.1.5-47 4.3 6.1z"/><g class="st1"><defs><path id="SVGID_11_" class="st1" d="M185.2 97.9l-4.3-6.1c-1.7-2.5-2.8-5.1-3.3-7.8-.7-4.2-1-11.6-.9-22.1L181 68c-.1 10.5.2 17.9.9 22.1.5 2.7 1.6 5.3 3.3 7.8z"/></defs><clipPath id="SVGID_12_"><use xlink:href="#SVGID_11_" overflow="visible"/></clipPath><g clip-path="url(#SVGID_12_)"><path class="st13" d="M185.2 97.9l-4.3-6.1c-1.7-2.5-2.8-5.1-3.3-7.8-.7-4.2-1-11.6-.9-22.1L181 68c-.1 10.5.2 17.9.9 22.1.5 2.7 1.6 5.3 3.3 7.8"/></g></g><g class="st1"><defs><path id="SVGID_13_" class="st1" d="M226.3 18.9l4.3 6.1c.1.1.1.2.2.3.7 1.3 1.1 4.4 1 9.1l-4.3-6.1c.1-4.8-.3-7.8-1-9.1-.1-.2-.1-.3-.2-.3z"/></defs><clipPath id="SVGID_14_"><use xlink:href="#SVGID_13_" overflow="visible"/></clipPath><g clip-path="url(#SVGID_14_)"><path class="st13" d="M231.8 34.4l-4.3-6.1c.1-4.8-.3-7.8-1-9.1-.1-.1-.1-.2-.2-.3l4.3 6.1c.1.1.1.2.2.3.7 1.3 1.1 4.3 1 9.1"/></g></g><path class="st3" d="M181.1 68l-4.4-6.1.2-17.5 4.3 6.1z"/><g class="st1"><defs><path id="SVGID_15_" class="st1" d="M261.6 14.5l4.3 6.1c-.9-1.3-2.1-2.6-3.4-3.9-3.8-3.6-8.8-6.3-15.1-8.1-6.3-1.8-13.4-2.7-21.3-2.7-8.3 0-15.6.9-21.9 2.8-6.3 1.9-11.3 4.6-15 8.1-3.7 3.5-5.9 7.5-6.7 11.7-.7 4.3-1.2 11.6-1.3 21.8l-4.3-6.1c.1-10.3.5-17.6 1.3-21.8.7-4.3 3-8.2 6.7-11.7s8.7-6.3 15-8.1c6.3-1.9 13.6-2.8 21.9-2.8 7.9 0 15 .9 21.3 2.7 6.3 1.8 11.3 4.5 15.1 8.1 1.3 1.2 2.4 2.5 3.4 3.9z"/></defs><clipPath id="SVGID_16_"><use xlink:href="#SVGID_15_" overflow="visible"/></clipPath><g clip-path="url(#SVGID_16_)"><path class="st13" d="M181.2 50.5l-4.3-6.1c.1-10.3.5-17.6 1.3-21.8.7-4.3 3-8.2 6.7-11.7 1.4-1.3 2.9-2.5 4.6-3.6l4.3 6.1c-1.7 1.1-3.3 2.3-4.6 3.6-3.7 3.5-5.9 7.5-6.7 11.7-.7 4.2-1.1 11.5-1.3 21.8"/><path class="st12" d="M193.9 13.3l-4.3-6.1c1.7-1.1 3.6-2.1 5.7-2.9l4.3 6.1c-2.1.9-4 1.9-5.7 2.9"/><path class="st11" d="M199.6 10.4l-4.3-6.1c1.5-.6 3-1.1 4.6-1.6.8-.2 1.6-.5 2.4-.7l4.3 6.1c-.8.2-1.6.4-2.4.7-1.6.5-3.2 1-4.6 1.6"/><path class="st10" d="M206.6 8.1L202.3 2c2.8-.7 5.9-1.3 9.1-1.6l4.3 6.1c-3.2.4-6.3.9-9.1 1.6"/><path class="st9" d="M215.7 6.5L211.4.4c3.3-.4 6.8-.6 10.5-.6h2.8l4.3 6.1h-2.8c-3.8 0-7.2.2-10.5.6"/><path class="st8" d="M228.9 6l-4.3-6.1c4.6.1 8.9.6 12.9 1.3l4.3 6.1c-4-.8-8.3-1.2-12.9-1.3"/><path class="st6" d="M241.8 7.3l-4.3-6.1c1.9.4 3.8.8 5.6 1.3 2.1.6 4.1 1.3 6 2.1l4.3 6.1c-1.8-.8-3.8-1.5-6-2.1-1.8-.5-3.7-.9-5.6-1.3"/><path class="st7" d="M253.3 10.8L249 4.7c3.6 1.6 6.6 3.6 9.1 5.9.6.6 1.2 1.1 1.7 1.7l4.3 6.1c-.5-.6-1.1-1.2-1.7-1.7-2.4-2.4-5.5-4.4-9.1-5.9"/><path class="st6" d="M264.2 18.4l-4.3-6.1c.6.7 1.2 1.4 1.7 2.2l4.3 6.1c-.5-.8-1.1-1.5-1.7-2.2"/></g></g><path class="st4" d="M269.2 28.4c.7 4.2 1 11.6.9 22.1l-.3 17.5c-.1 10.3-.5 17.6-1.3 21.8-.7 4.3-3 8.2-6.7 11.7s-8.7 6.3-15 8.1c-6.3 1.9-13.6 2.8-21.9 2.8-7.9 0-15-.9-21.3-2.7-6.3-1.8-11.3-4.5-15.1-8.1-3.8-3.6-6-7.5-6.7-11.7-.7-4.2-1-11.6-.9-22.1l.2-17.5c.1-10.3.5-17.6 1.3-21.8.7-4.3 3-8.2 6.7-11.7s8.7-6.3 15-8.1c6.3-1.9 13.6-2.8 21.9-2.8 7.9 0 15 .9 21.3 2.7 6.3 1.8 11.3 4.5 15.1 8.1s6.1 7.5 6.8 11.7zm-37.9 53l.5-47c.1-4.8-.3-7.8-1-9.1-.7-1.3-2.3-2-4.7-2-2 0-3.5.5-4.6 1.6-1.1 1.1-1.6 4.2-1.7 9.5l-.5 47.8c-.1 5.9.2 9.6.9 11 .7 1.4 2.3 2.1 4.9 2.1 2.6 0 4.3-.8 5-2.4.8-1.7 1.2-5.5 1.2-11.5"/></g><g class="st1"><g class="st1"><defs><path id="SVGID_17_" class="st1" d="M322.3 92.9l-4.3-6.1c5.5 0 8.9-.8 10.2-2.3 1.3-1.5 2-5.7 2.1-12.5l4.3 6.1c-.1 6.8-.8 11-2.1 12.5s-4.7 2.3-10.2 2.3z"/></defs><clipPath id="SVGID_18_"><use xlink:href="#SVGID_17_" overflow="visible"/></clipPath><g clip-path="url(#SVGID_18_)"><path class="st9" d="M322.3 92.9l-4.3-6.1c1.7 0 3.2-.1 4.5-.2l4.3 6.1c-1.3.1-2.8.2-4.5.2"/><path class="st10" d="M326.8 92.6l-4.3-6.1c1-.1 1.8-.3 2.6-.4l4.3 6.1c-.8.2-1.6.3-2.6.4"/><path class="st11" d="M329.4 92.2l-4.3-6.1c.5-.1 1-.3 1.4-.4l4.3 6.1c-.5.1-.9.3-1.4.4"/><path class="st12" d="M330.7 91.8l-4.3-6.1c.3-.1.6-.3.9-.5l4.3 6.1c-.2.2-.5.3-.9.5"/><path class="st13" d="M331.7 91.3l-4.3-6.1c.3-.2.6-.5.9-.7 1.3-1.5 2-5.7 2.1-12.5l4.3 6.1c-.1 6.8-.8 11-2.1 12.5-.3.2-.6.5-.9.7"/></g></g><path class="st3" d="M334.6 78l-4.4-6.1.5-39.7 4.3 6.1z"/><g class="st1"><defs><path id="SVGID_19_" class="st1" d="M329.5 22.1l4.3 6.1c.2.3.4.7.6 1.2.4 1.3.6 4.3.6 8.9l-4.3-6.1c0-4.6-.1-7.6-.6-8.9-.1-.4-.3-.8-.6-1.2z"/></defs><clipPath id="SVGID_20_"><use xlink:href="#SVGID_19_" overflow="visible"/></clipPath><g clip-path="url(#SVGID_20_)"><path class="st13" d="M335 38.3l-4.3-6.1c0-4.6-.1-7.6-.6-8.9-.1-.4-.3-.8-.6-1.2l4.3 6.1c.2.3.4.7.6 1.2.5 1.3.6 4.2.6 8.9"/></g></g><g class="st1"><defs><path id="SVGID_21_" class="st1" d="M365.7 13.7l4.3 6.1c-1-1.5-2.4-2.9-4-4.2-3.4-2.7-8.3-4.6-14.8-5.8-6.5-1.2-19.1-1.8-37.6-1.8l-4.4-6c18.5 0 31.1.6 37.6 1.8 6.5 1.2 11.5 3.1 14.8 5.8 1.7 1.3 3 2.7 4.1 4.1z"/></defs><clipPath id="SVGID_22_"><use xlink:href="#SVGID_21_" overflow="visible"/></clipPath><g clip-path="url(#SVGID_22_)"><path class="st9" d="M313.5 8.1L309.2 2c6.3 0 12 .1 16.9.2l4.3 6.1c-4.9-.1-10.5-.2-16.9-.2"/><path class="st8" d="M330.4 8.3l-4.3-6.1c9.5.3 16.4.8 20.7 1.6.2 0 .3.1.5.1l4.3 6.1c-.2 0-.3-.1-.5-.1-4.3-.8-11.2-1.3-20.7-1.6"/><path class="st6" d="M351.6 9.9l-4.3-6.1c3.6.7 6.7 1.6 9.3 2.8l4.3 6.1c-2.6-1.2-5.7-2.1-9.3-2.8"/><path class="st7" d="M360.9 12.7l-4.3-6.1c1.9.9 3.6 1.8 5 3 1 .8 2 1.7 2.8 2.6l4.3 6.1c-.8-.9-1.7-1.8-2.8-2.6-1.4-1.2-3-2.1-5-3"/><path class="st6" d="M368.7 18.3l-4.3-6.1c.5.5.9 1 1.3 1.6l4.3 6.1c-.4-.6-.8-1.1-1.3-1.6"/></g></g><path class="st2" d="M284.8 8.1L280.5 2h28.7l4.3 6.1z"/><path class="st3" d="M283.7 110.4l-4.3-6.1L280.5 2l4.3 6.1z"/><path class="st4" d="M372.2 24.7c.8 3.3 1.2 9.8 1.1 19.5l-.4 35.8c-.1 9.2-.8 15.3-2.1 18.4-1.3 3.1-3.5 5.5-6.6 7.3-3.1 1.8-7 3-11.5 3.7-4.6.7-11.4 1-20.6 1h-48.4l1.1-102.3h28.7c18.5 0 31.1.6 37.6 1.8 6.5 1.2 11.5 3.1 14.8 5.8 3.4 2.7 5.5 5.7 6.3 9zM334.6 78l.4-39.7c0-4.6-.1-7.6-.6-8.9-.4-1.3-1.4-2.3-2.9-2.9-1.5-.6-4.4-.9-8.6-.9l-.7 67.3c5.5 0 8.9-.8 10.2-2.3s2.1-5.8 2.2-12.6"/></g><g class="st1"><g class="st1"><defs><path id="SVGID_23_" class="st1" d="M425.5 92.9l-4.3-6.1c5.5 0 8.9-.8 10.2-2.3 1.3-1.5 2-5.7 2-12.5l4.3 6.1c-.1 6.8-.8 11-2 12.5s-4.7 2.3-10.2 2.3z"/></defs><clipPath id="SVGID_24_"><use xlink:href="#SVGID_23_" overflow="visible"/></clipPath><g clip-path="url(#SVGID_24_)"><path class="st25" d="M425.5 92.9l-4.3-6.1c1.7 0 3.2-.1 4.5-.2l4.3 6.1c-1.3.1-2.8.2-4.5.2"/><path class="st26" d="M430 92.6l-4.3-6.1c1-.1 1.8-.3 2.6-.4l4.3 6.1c-.8.2-1.6.3-2.6.4"/><path class="st27" d="M432.6 92.2l-4.3-6.1c.5-.1 1-.3 1.4-.4l4.3 6.1c-.4.1-.9.3-1.4.4"/><path class="st28" d="M434 91.8l-4.3-6.1c.3-.1.6-.3.9-.5l4.3 6.1c-.3.2-.6.3-.9.5"/><path class="st29" d="M434.9 91.3l-4.3-6.1c.3-.2.6-.5.9-.7 1.3-1.5 2-5.7 2-12.5l4.3 6.1c-.1 6.8-.8 11-2 12.5-.3.2-.6.5-.9.7"/></g></g><path class="st30" d="M437.8 78l-4.3-6.1.4-39.7 4.3 6.1z"/><g class="st1"><defs><path id="SVGID_25_" class="st1" d="M432.8 22.1l4.3 6.1c.2.3.4.7.6 1.2.4 1.3.6 4.3.5 8.9l-4.3-6.1c0-4.6-.1-7.6-.5-8.9l-.6-1.2z"/></defs><clipPath id="SVGID_26_"><use xlink:href="#SVGID_25_" overflow="visible"/></clipPath><g clip-path="url(#SVGID_26_)"><path class="st29" d="M438.2 38.3l-4.3-6.1c0-4.6-.1-7.6-.5-8.9-.1-.4-.3-.8-.6-1.2l4.3 6.1c.2.3.4.7.6 1.2.4 1.3.6 4.2.5 8.9"/></g></g><g class="st1"><defs><path id="SVGID_27_" class="st1" d="M468.9 13.8l4.3 6.1c-1-1.5-2.4-2.9-4-4.2-3.4-2.7-8.3-4.6-14.8-5.8-6.5-1.2-19-1.8-37.6-1.8L412.4 2c18.6 0 31.1.6 37.6 1.8 6.5 1.2 11.5 3.1 14.8 5.8 1.7 1.3 3 2.7 4.1 4.2z"/></defs><clipPath id="SVGID_28_"><use xlink:href="#SVGID_27_" overflow="visible"/></clipPath><g clip-path="url(#SVGID_28_)"><path class="st25" d="M416.7 8.1L412.4 2c6.3 0 12 .1 16.9.2l4.3 6.1c-4.9-.1-10.5-.2-16.9-.2"/><path class="st33" d="M433.6 8.3l-4.3-6.1c9.5.3 16.4.8 20.7 1.6.2 0 .3.1.5.1l4.3 6.1c-.2 0-.3-.1-.5-.1-4.3-.8-11.2-1.3-20.7-1.6"/><path class="st34" d="M454.8 9.9l-4.3-6.1c3.6.7 6.7 1.6 9.3 2.8l4.3 6.1c-2.6-1.2-5.7-2.1-9.3-2.8"/><path class="st35" d="M464.2 12.7l-4.3-6.1c1.9.9 3.6 1.8 5 3 1 .8 2 1.7 2.8 2.6l4.3 6.1c-.8-.9-1.7-1.8-2.8-2.6-1.4-1.2-3.1-2.1-5-3"/><path class="st34" d="M471.9 18.3l-4.3-6.1c.5.5.9 1 1.3 1.6l4.3 6.1c-.4-.6-.8-1.1-1.3-1.6"/></g></g><path fill="#9d9d9d" d="M388 8.1L383.7 2h28.7l4.3 6.1z"/><path class="st30" d="M386.9 110.4l-4.3-6.1L383.7 2l4.3 6.1z"/><path class="st37" d="M475.5 24.7c.8 3.3 1.2 9.8 1.1 19.5l-.5 35.8c-.1 9.2-.8 15.3-2.1 18.4-1.3 3.1-3.5 5.5-6.6 7.3-3.1 1.8-7 3-11.5 3.7-4.6.7-11.4 1-20.6 1h-48.4L388 8.1h28.7c18.5 0 31.1.6 37.6 1.8 6.5 1.2 11.5 3.1 14.8 5.8 3.4 2.7 5.6 5.7 6.4 9zM437.8 78l.4-39.7c0-4.6-.1-7.6-.5-8.9-.4-1.3-1.4-2.3-2.9-2.9-1.5-.6-4.4-.9-8.6-.9l-.7 67.3c5.5 0 8.9-.8 10.2-2.3 1.3-1.6 2-5.8 2.1-12.6"/></g><g class="st1"><g class="st1"><defs><path id="SVGID_29_" class="st1" d="M528.9 93.5l-4.3-6.1c.8 1.1 2.3 1.7 4.6 1.7 2.6 0 4.3-.8 5-2.4.7-1.6 1.2-5.4 1.2-11.4l4.3 6.1c-.1 6-.5 9.8-1.2 11.4-.7 1.6-2.4 2.4-5 2.4-2.3 0-3.8-.5-4.6-1.7z"/></defs><clipPath id="SVGID_30_"><use xlink:href="#SVGID_29_" overflow="visible"/></clipPath><g clip-path="url(#SVGID_30_)"><path class="st34" d="M528.9 93.5l-4.3-6.1c.1.1.1.2.2.3l4.3 6.1c-.1-.1-.1-.2-.2-.3"/><path class="st35" d="M529.1 93.8l-4.3-6.1c.3.4.7.6 1.2.9l4.3 6.1c-.5-.3-.9-.5-1.2-.9"/><path class="st34" d="M530.3 94.7l-4.3-6.1c.4.2.8.3 1.3.4l4.3 6.1c-.5-.1-.9-.3-1.3-.4"/><path class="st33" d="M531.6 95l-4.3-6.1c.5.1 1 .1 1.5.2l4.3 6.1c-.5 0-1-.1-1.5-.2"/><path class="st25" d="M533.1 95.2l-4.3-6.1h.4c.4 0 .8 0 1.2-.1l4.3 6.1c-.4 0-.8.1-1.2.1h-.4"/><path class="st26" d="M534.7 95.1l-4.3-6.1c.4 0 .7-.1 1-.2l4.3 6.1c-.3.1-.6.2-1 .2"/><path class="st27" d="M535.7 95l-4.3-6.1c.3-.1.5-.2.8-.3l4.3 6.1c-.2.1-.5.2-.8.3"/><path class="st28" d="M536.5 94.7l-4.3-6.1c.2-.1.5-.2.7-.3l4.3 6.1c-.2.1-.5.2-.7.3"/><path class="st29" d="M537.2 94.4l-4.3-6.1c.6-.4 1.1-.9 1.4-1.6.7-1.6 1.2-5.4 1.2-11.4l4.3 6.1c-.1 6-.5 9.8-1.2 11.4-.4.7-.8 1.2-1.4 1.6"/></g></g><path class="st30" d="M539.8 81.4l-4.4-6.1.5-47 4.4 6.1z"/><g class="st1"><defs><path id="SVGID_31_" class="st1" d="M493.6 97.9l-4.3-6.1c-1.8-2.5-2.8-5.1-3.3-7.8-.7-4.2-1-11.6-.9-22.1l4.3 6.1c-.1 10.5.2 17.9.9 22.1.5 2.7 1.6 5.3 3.3 7.8z"/></defs><clipPath id="SVGID_32_"><use xlink:href="#SVGID_31_" overflow="visible"/></clipPath><g clip-path="url(#SVGID_32_)"><path class="st29" d="M493.6 97.9l-4.3-6.1c-1.8-2.5-2.8-5.1-3.3-7.8-.7-4.2-1-11.6-.9-22.1l4.3 6.1c-.1 10.5.2 17.9.9 22.1.5 2.7 1.6 5.3 3.3 7.8"/></g></g><g class="st1"><defs><path id="SVGID_33_" class="st1" d="M534.7 18.9L539 25c.1.1.1.2.2.3.7 1.3 1.1 4.4 1 9.1l-4.3-6.1c.1-4.8-.3-7.8-1-9.1-.1-.2-.1-.3-.2-.3z"/></defs><clipPath id="SVGID_34_"><use xlink:href="#SVGID_33_" overflow="visible"/></clipPath><g clip-path="url(#SVGID_34_)"><path class="st29" d="M540.3 34.4l-4.3-6.1c.1-4.8-.3-7.8-1-9.1-.1-.1-.1-.2-.2-.3l4.3 6.1c.1.1.1.2.2.3.7 1.3 1 4.3 1 9.1"/></g></g><path class="st30" d="M489.5 68l-4.3-6.1.2-17.5 4.3 6.1z"/><g class="st1"><defs><path id="SVGID_35_" class="st1" d="M570 14.5l4.3 6.1c-.9-1.3-2.1-2.6-3.4-3.9-3.8-3.6-8.8-6.3-15.1-8.1-6.3-1.8-13.4-2.7-21.3-2.7-8.3 0-15.6.9-21.9 2.8-6.3 1.9-11.3 4.6-15 8.1-3.7 3.5-5.9 7.5-6.7 11.7-.7 4.3-1.2 11.6-1.3 21.8l-4.3-6.1c.1-10.3.5-17.6 1.3-21.8.7-4.3 3-8.2 6.7-11.7s8.7-6.3 15-8.1c6.3-1.9 13.6-2.8 21.9-2.8 7.9 0 15 .9 21.3 2.7 6.3 1.8 11.3 4.5 15.1 8.1 1.3 1.2 2.5 2.5 3.4 3.9z"/></defs><clipPath id="SVGID_36_"><use xlink:href="#SVGID_35_" overflow="visible"/></clipPath><g clip-path="url(#SVGID_36_)"><path class="st29" d="M489.7 50.5l-4.3-6.1c.1-10.3.5-17.6 1.3-21.8.7-4.3 3-8.2 6.7-11.7 1.4-1.3 2.9-2.5 4.6-3.6l4.3 6.1c-1.7 1.1-3.3 2.3-4.6 3.6-3.7 3.5-5.9 7.5-6.7 11.7-.8 4.2-1.2 11.5-1.3 21.8"/><path class="st28" d="M502.3 13.4L498 7.3c1.7-1.1 3.6-2.1 5.7-2.9l4.3 6.1c-2.1.8-4 1.8-5.7 2.9"/><path class="st27" d="M508 10.4l-4.3-6.1c1.5-.6 3-1.2 4.6-1.6.8-.2 1.6-.5 2.4-.7l4.3 6.1c-.8.2-1.6.4-2.4.7-1.6.5-3.1 1-4.6 1.6"/><path class="st26" d="M515 8.1L510.7 2c2.8-.7 5.9-1.3 9.1-1.6l4.3 6.1c-3.2.4-6.2.9-9.1 1.6"/><path class="st25" d="M524.1 6.5L519.8.4c3.3-.4 6.8-.6 10.4-.6h2.8l4.3 6.1h-2.8c-3.6 0-7.1.2-10.4.6"/><path class="st33" d="M537.4 6L533-.1c4.6.1 8.9.6 12.9 1.3l4.3 6.1c-4-.8-8.3-1.2-12.8-1.3"/><path class="st34" d="M550.2 7.3l-4.3-6.1c1.9.4 3.8.8 5.6 1.3 2.1.6 4.1 1.3 6 2.1l4.3 6.1c-1.8-.8-3.8-1.5-6-2.1-1.8-.5-3.6-.9-5.6-1.3"/><path class="st35" d="M561.8 10.8l-4.3-6.1c3.6 1.6 6.6 3.6 9.1 5.9.6.6 1.2 1.1 1.7 1.7l4.3 6.1c-.5-.6-1.1-1.2-1.7-1.7-2.5-2.4-5.5-4.4-9.1-5.9"/><path class="st34" d="M572.6 18.4l-4.3-6.1c.6.7 1.2 1.4 1.7 2.2l4.3 6.1c-.5-.8-1.1-1.5-1.7-2.2"/></g></g><path class="st37" d="M577.6 28.4c.7 4.2 1 11.6.9 22.1l-.2 17.5c-.1 10.3-.5 17.6-1.3 21.8-.7 4.3-3 8.2-6.7 11.7s-8.7 6.3-15 8.1-13.6 2.8-21.9 2.8c-7.9 0-15-.9-21.3-2.7-6.3-1.8-11.3-4.5-15.1-8.1-3.8-3.6-6-7.5-6.7-11.7-.7-4.2-1-11.6-.9-22.1l.2-17.5c.1-10.3.5-17.6 1.3-21.8.7-4.3 3-8.2 6.7-11.7s8.7-6.3 15-8.1c6.3-1.9 13.6-2.8 21.9-2.8 7.9 0 15 .9 21.3 2.7 6.3 1.8 11.3 4.5 15.1 8.1 3.8 3.6 6 7.5 6.7 11.7zm-37.8 53l.5-47c.1-4.8-.3-7.8-1-9.1-.7-1.3-2.3-2-4.7-2-2 0-3.5.5-4.6 1.6-1.1 1.1-1.6 4.2-1.7 9.5l-.5 47.8c-.1 5.9.2 9.6.9 11 .7 1.4 2.3 2.1 4.9 2.1 2.6 0 4.3-.8 5-2.4.7-1.7 1.1-5.5 1.2-11.5"/></g></svg>