<svg xmlns="http://www.w3.org/2000/svg" width="157" height="157" viewBox="0 0 157 157">
  <g fill="none">
    <circle cx="78.5" cy="78.5" r="78.5" fill="#401381"/>
    <g fill="#4D4D4D" transform="translate(68 41)">
      <ellipse cx="42.055" cy="4.951" rx="4.882" ry="4.854"/>
      <ellipse cx="4.949" cy="68.981" rx="4.882" ry="4.854"/>
    </g>
    <path fill="#F70F47" d="M81,75.884145 L80.9975794,75.8865656 C78.2367295,77.6221827 74.3065476,80.007345 69.8051137,82.4778357 C68.4649305,83.2127094 67.0759327,83.954845 65.6502231,84.6895169 C63.8779701,85.6049319 62.0520613,86.5082435 60.2015435,87.372421 C58.7173371,88.06574 57.2184056,88.7322298 55.7196758,89.3571649 C53.9595255,90.0944592 52.2019976,90.7730524 50.473718,91.3711585 C48.733134,91.9765266 47.0195795,92.4965662 45.3618996,92.9115086 C38.7366263,94.5739005 32.9658106,94.5521145 29.7069305,91.2928903 C26.4480505,88.0338679 26.4260637,82.2627999 28.088383,75.6372371 C28.5033073,73.9772658 29.0257447,72.2658554 29.6286658,70.5227747 C30.2267457,68.7944196 30.9053092,67.0366131 31.6425714,65.2765877 C32.2674791,63.7800113 32.9339399,62.281216 33.6272285,60.7969447 C34.4913683,58.9465478 35.3946404,57.1203575 36.3100154,55.348027 C37.0448569,53.9222551 37.7869601,52.5331966 38.5240205,51.1929549 C40.9919827,46.6913242 43.3770408,42.7609706 45.1150025,40 L81,75.884145 Z"/>
    <path fill="#EEF6FF" d="M129.590869,109.881287 L88.1634409,68.930263 L88.1595717,68.9340877 C91.162486,61.5445367 87.7235728,50.5547209 79.0897361,42.0199696 C68.6754517,31.7254467 54.6471216,28.9018004 47.7564657,35.7132156 C40.8658099,42.5246307 43.7221015,56.3916388 54.1365895,66.6861617 C62.7683898,75.2186987 73.8830012,78.6186692 81.3581114,75.6543136 L122.787169,116.606948 C124.66618,118.464351 127.712266,118.464351 129.591073,116.606948 C131.469676,114.749747 131.469676,111.738488 129.590869,109.881287 Z"/>
    <path fill="#811260" d="M81.134181,68.1342616 C77.4276272,71.8408327 67.4928972,70.1662425 59.1634024,61.8367089 C50.8339077,53.5071752 49.1591243,43.5723988 52.8656781,39.8658277 C56.5724329,36.1590556 66.5069619,37.8338468 74.8366576,46.1633805 C83.1661524,54.4927131 84.8409358,64.4276905 81.134181,68.1342616 Z"/>
    <g fill="#A92958" transform="translate(28 51)">
      <path d="M22.488375 40.4015769C20.7459808 41.0075481 19.0306442 41.5281058 17.3712404 41.9434615 13.8939231 39.9835962 10.5728942 37.4520865 7.57211538 34.4511058 4.57375962 31.45275 2.039625 28.1317212.0797596154 24.6519808.495115385 22.9903558 1.01809615 21.2772404 1.62164423 19.5324231 3.52032692 23.9139519 6.45023077 28.1462596 10.1621827 31.8606346 13.8769615 35.5727885 18.1068462 38.5002692 22.488375 40.4015769zM32.2263173 36.3988558C30.7405673 37.0928654 29.2400769 37.7600192 27.7397885 38.3855769 22.771875 35.9102019 18.0188077 32.4548942 13.7937692 28.2296538 9.56630769 24.0021923 6.11079808 19.249125 3.63784615 14.2812115 4.26340385 12.7831442 4.93055769 11.2828558 5.62456731 9.79710577 7.92891346 15.42975 11.62875 20.8814712 16.3864615 25.6369615 21.1419519 30.3946731 26.5936731 34.0945096 32.2263173 36.3988558zM41.8396731 31.4991923C40.4980962 32.2347981 39.1076538 32.9776731 37.6804615 33.7130769 31.5468462 30.8881731 25.6599808 26.7315865 20.4770192 21.546 15.2916346 16.3630385 11.1348462 10.4761731 8.30994231 4.34255769 9.04554808 2.91536538 9.78842308 1.52492308 10.52625.183346154 13.1213654 6.85690385 17.4467596 13.3352019 23.0670865 18.9555288 28.6874135 24.5758558 35.1661154 28.9016538 41.8396731 31.4991923z"/>
    </g>
    <g fill="#FFA91F" transform="translate(105 44)">
      <path d="M12.4069242,1.8466 C13.4057576,3.4974 12.8979697,5.6588 11.2721818,6.6752 C9.64639394,7.6894 7.51774242,7.1738 6.51910606,5.523 C5.51790909,3.8722 6.02569697,1.7108 7.65128788,0.6944 C7.79192424,0.6072 7.93728788,0.5298 8.08521212,0.4644 C9.6395,-0.2228 11.4939697,0.3386 12.4069242,1.8466 Z"/>
      <path d="M6.51910606,5.5232 C7.51793939,7.174 7.01015152,9.3354 5.38436364,10.3518 C3.75857576,11.366 1.62992424,10.8504 0.628924242,9.1996 C-0.250742424,7.745 0.0378181818,5.8934 1.23440909,4.7776 C1.39415152,4.6276 1.57043939,4.492 1.76366667,4.371 C3.38925758,3.357 5.51790909,3.8724 6.51910606,5.5232 Z"/>
    </g>
    <g fill="#FFD00D" transform="translate(98 35)">
      <path d="M14.8039121,9.49682432 C12.6781319,10.3725 10.1862198,9.5777027 8.9463956,7.51236486 C7.56276923,5.20398649 8.26417582,2.18432432 10.5167473,0.766418919 C12.7669451,-0.651486486 15.715978,0.0672972973 17.0996044,2.37567568 C18.4832308,4.68162162 17.7794505,7.70128378 15.5292527,9.12162162 C15.2946593,9.26858108 15.0505714,9.39364865 14.8039121,9.49682432 Z"/>
      <path d="M8.9463956,7.51216216 C10.2174725,9.62918919 9.7290989,12.3496622 7.89547253,13.880473 C7.73268132,14.015473 7.5603956,14.142973 7.37604396,14.2583108 C5.12584615,15.6762162 2.17918681,14.955 0.793186813,12.6490541 C-0.59043956,10.3406757 0.113340659,7.32101351 2.36353846,5.90310811 C4.61591209,4.485 7.56276923,5.20378378 8.9463956,7.51216216 Z"/>
    </g>
    <g fill="#FFD41D" transform="translate(63 108)">
      <path d="M11.817,5.58673684 C13.0977031,6.85557895 13.2918906,8.94463158 12.2078125,10.4555789 C11.0327344,12.0938947 8.80079687,12.4351579 7.22251562,11.2172632 C5.64179687,9.99936842 5.31253125,7.68357895 6.48760937,6.04778947 C7.6626875,4.40947368 9.894625,4.07073684 11.4753437,5.28863158 C11.5957969,5.38294737 11.711375,5.48210526 11.817,5.58673684 Z"/>
      <path d="M5.75514063,0.878315789 C7.33585938,2.09621053 7.6626875,4.40947368 6.48760938,6.04778947 C5.31253125,7.68336842 3.08059375,8.02484211 1.499875,6.80694737 C-0.078203125,5.58905263 -0.407671875,3.27578947 0.76740625,1.63747368 C1.82446875,0.167368421 3.73445313,-0.258105263 5.2585,0.557263158 C5.42810938,0.649052632 5.59528125,0.756 5.75514063,0.878315789 Z"/>
    </g>
    <g fill="#7F87EF" transform="translate(66 100)">
      <path d="M15.8919545,7.02666667 C18.0850909,8.6625641 18.5406136,11.7706667 16.9118182,13.9700513 C15.2805682,16.1694359 12.1812955,16.6262564 9.98815909,14.990359 C9.74311364,14.8065641 9.52036364,14.6055385 9.31970455,14.3895385 C7.71811364,12.6715897 7.52011364,10.0006154 8.96829545,8.04676923 C10.5995455,5.84758974 13.7012727,5.39076923 15.8919545,7.02666667 Z"/>
      <path d="M7.95088636,1.10358974 C10.1440227,2.73948718 10.5995455,5.84758974 8.96829545,8.04697436 C7.49290909,10.0404103 4.80968182,10.6014359 2.68568182,9.47446154 C2.46538636,9.35774359 2.25,9.22133333 2.04463636,9.06728205 C-0.146045455,7.43384615 -0.604022727,4.32328205 1.02722727,2.12389744 C2.65847727,-0.0756923077 5.75775,-0.532307692 7.95088636,1.10358974 Z"/>
    </g>
  </g>
</svg>
