<svg width="157" height="157" viewBox="0 0 157 157" fill="none" xmlns="http://www.w3.org/2000/svg">
<g id="project-icon">
<g id="Group 7">
<path id="Oval" d="M78.5 157C121.854 157 157 121.854 157 78.5C157 35.1456 121.854 0 78.5 0C35.1456 0 0 35.1456 0 78.5C0 121.854 35.1456 157 78.5 157Z" fill="#401381"/>
<path id="Shape" d="M66.3637 114.382C70.4513 114.382 74.2169 116.427 76.4371 119.853C76.4917 119.937 76.5835 119.992 76.6843 119.999C76.6924 120 76.7008 120 76.7089 120C76.8013 120 76.8895 119.961 76.9509 119.891C80.2791 116.146 85.0639 113.999 90.0785 113.999C91.7872 113.999 93.4377 114.247 95 114.704L89.2335 100H68.8295L63 114.864C64.0679 114.552 65.196 114.382 66.3637 114.382Z" fill="#D9EAFC"/>
<g id="Group">
<path id="Shape_2" d="M71.3308 100.058H68.6828L62.8794 115.056C63.7827 114.789 64.731 114.633 65.7082 114.589L71.3308 100.058Z" fill="#AEC1ED"/>
<path id="Shape_3" d="M60.0487 129.9C60.0616 129.986 60.1076 130.063 60.1768 130.114C60.2321 130.155 60.299 130.177 60.3669 130.177C60.3836 130.177 60.4006 130.176 60.4174 130.173C61.5658 129.989 62.719 129.895 63.8448 129.895C69.3452 129.895 74.5921 131.979 78.6199 135.763C78.6816 135.821 78.7604 135.85 78.8392 135.85C78.9181 135.85 78.9969 135.821 79.0586 135.763C83.086 131.979 88.3333 129.895 93.8336 129.895C94.9592 129.895 96.1127 129.989 97.2611 130.173C97.2782 130.176 97.2949 130.177 97.3116 130.177C97.3795 130.177 97.4464 130.155 97.5017 130.114C97.5709 130.063 97.6169 129.986 97.6298 129.9C98.2242 125.866 99.73 122.046 101.989 118.711C98.8116 115.704 94.5394 113.859 89.8368 113.859C84.5365 113.859 79.7814 116.202 76.527 119.914C74.3473 116.505 70.5509 114.246 66.2285 114.246C62.0824 114.246 58.4204 116.325 56.2043 119.504C58.1762 122.646 59.5009 126.182 60.0487 129.9Z" fill="#AEC1ED"/>
</g>
<path id="Shape_4" d="M60 129.707C58.0755 116.858 46.9093 107 33.4191 107C24.054 107 15.811 111.752 11 118.956C18.3661 131.227 29.0443 141.309 41.8102 148C43.1754 138.623 50.5878 131.19 60 129.707Z" fill="#811260"/>
<path id="Shape_5" d="M36.0172 110.26C42.8476 110.26 49.1089 112.658 54 116.644C49.0878 110.756 41.6602 107 33.3426 107C24.0094 107 15.7946 111.727 11 118.892C11.6333 119.945 12.293 120.98 12.9747 122C18.1118 114.894 26.5157 110.26 36.0172 110.26Z" fill="#293D7C"/>
<path id="Shape_6" d="M123.581 107C110.091 107 98.9245 116.858 97 129.707C106.412 131.19 113.825 138.623 115.19 148C127.955 141.309 138.634 131.226 146 118.956C141.189 111.752 132.946 107 123.581 107Z" fill="#811260"/>
<g id="Group_2">
<path id="Shape_7" d="M125.88 106.197C125.339 106.165 124.793 106.146 124.244 106.146C110.667 106.146 99.4295 116.179 97.4927 129.255C98.502 129.416 99.4868 129.649 100.445 129.943C103.136 117.587 113.256 108.019 125.88 106.197Z" fill="#293D7C"/>
<path id="Shape_8" d="M94.0132 128.975C88.2149 128.975 82.9435 131.226 79.0116 134.901C75.0797 131.226 69.8083 128.975 64.01 128.975C52.9275 128.975 43.7599 137.188 42.2231 147.876C53.2069 153.698 65.7238 157 79.0116 157C92.2994 157 104.816 153.698 115.8 147.876C114.263 137.188 105.096 128.975 94.0132 128.975Z" fill="#811260"/>
</g>
<path id="Shape_9" d="M68.4073 131.764C71.446 131.764 74.3459 132.361 77 133.442C73.3211 130.657 68.7552 129 63.8021 129C52.7119 129 43.5379 137.272 42 148.035C43.2957 148.726 44.6132 149.381 45.9501 150C48.2068 139.573 57.3998 131.764 68.4073 131.764Z" fill="#1A2B63"/>
<g id="Group_3">
<path id="Shape_10" d="M86.1918 100.058H81.249L81.8797 105.018C82.0493 106.354 83.2779 107.298 84.6196 107.13C85.9629 106.961 86.9146 105.742 86.7446 104.407L86.1918 100.058Z" fill="#AEC1ED"/>
<path id="Shape_11" d="M71.4619 100.058L70.1653 110.256C69.9957 111.592 70.947 112.812 72.2907 112.98C72.395 112.993 72.4986 113 72.6012 113C73.8184 112.999 74.8743 112.099 75.0309 110.867L76.4053 100.058H71.4619V100.058Z" fill="#AEC1ED"/>
</g>
<path id="Shape_12" d="M54.0098 55.7651C54.0098 53.1658 54.1099 50.5735 54.2971 48C46.4241 52.3186 41 61.9394 41 73.0778C41 78.9605 42.5016 84.5706 45.3423 89.3016C45.609 89.746 46.0916 90 46.5929 90C46.7762 90 46.9617 89.9662 47.1401 89.8951C50.8734 88.4085 54.8629 87.6448 59 87.613C55.7333 77.8187 54.0098 66.8809 54.0098 55.7651Z" fill="#F70F47"/>
<path id="Shape_13" d="M44.6272 73.0778C44.6272 63.878 48.247 55.717 53.8432 50.7204C53.8861 49.8117 53.9357 48.9046 54 48C46.3029 52.3186 41 61.9394 41 73.0778C41 78.9605 42.4681 84.5706 45.2453 89.3016C45.506 89.746 45.9779 90 46.468 90C46.6471 90 46.8285 89.9662 47.0029 89.8951C47.6043 89.65 48.2153 89.432 48.8299 89.2264C46.0809 84.511 44.6272 78.9295 44.6272 73.0778Z" fill="#A92958"/>
<g id="Group_4">
<path id="Shape_14" d="M102.863 48.1143C103.046 50.708 103.144 53.3205 103.144 55.9396C103.144 67.1413 101.456 78.164 98.2563 88.0345C102.309 88.0666 106.216 88.8362 109.873 90.3344C110.048 90.406 110.23 90.4401 110.409 90.4401C110.9 90.4401 111.373 90.1837 111.634 89.7363C114.417 84.9685 115.887 79.3149 115.887 73.3866C115.887 62.1618 110.575 52.4664 102.863 48.1143Z" fill="#F70F47"/>
<path id="Shape_15" d="M66.2268 91.7251V99.1303C66.2268 100.014 66.948 100.736 67.8294 100.736H89.1701C90.0515 100.736 90.7726 100.014 90.7726 99.1303V91.7251H66.2268Z" fill="#D8487D"/>
</g>
<path id="Shape_16" d="M71.4096 98.396V91H66V98.396C66 99.2782 66.7157 100 67.5904 100H73C72.1253 100 71.4096 99.2782 71.4096 98.396Z" fill="#A92958"/>
<path id="Shape_17" d="M98.5318 29H59.4682C55.8882 39.3335 54 50.9644 54 62.8737C54 75.2541 56.0506 87.4234 59.9297 98.0654C60.1345 98.6266 60.6673 99 61.264 99H96.736C97.3327 99 97.8658 98.6266 98.0703 98.0654C101.949 87.4234 104 75.2541 104 62.8737C104 50.9644 102.112 39.3338 98.5318 29Z" fill="#EEF6FF"/>
<path id="Shape_18" d="M64.6446 98.0654C60.7036 87.4234 58.6208 75.2541 58.6208 62.8737C58.6208 50.9644 60.539 39.3335 64.1757 29H59.5549C55.9182 39.3335 54 50.9644 54 62.8737C54 75.2541 56.0831 87.4234 60.0238 98.0654C60.2318 98.6266 60.7731 99 61.3792 99H66C65.3939 99 64.8526 98.6266 64.6446 98.0654Z" fill="#D9EAFC"/>
<path id="Shape_19" d="M69 29V34.3792C69 35.2706 69.7026 36 70.5614 36H85.4386C86.2974 36 87 35.2706 87 34.3792V29H69Z" fill="#D8487D"/>
<path id="Shape_20" d="M72.4698 27.3792V22H69V27.3792C69 28.2706 69.6886 29 70.5302 29H74C73.1584 29 72.4698 28.2706 72.4698 27.3792Z" fill="#A92958"/>
<path id="Shape_21" d="M78.5002 0C78.1857 0 77.8715 0.104481 77.6128 0.313126C70.4955 6.05768 64.5003 14.7718 60.2764 25.5137C59.8271 26.6566 59.405 27.8221 59 29H98C97.595 27.8221 97.1729 26.6566 96.7236 25.5137C92.4997 14.7718 86.5048 6.05768 79.3872 0.313126C79.1288 0.104481 78.8146 0 78.5002 0Z" fill="#F70F47"/>
<path id="Shape_22" d="M81 1.46972C80.5428 1.07244 80.0812 0.685955 79.6144 0.313126C79.3528 0.104481 79.0351 0 78.7171 0C78.3992 0 78.0815 0.104481 77.8199 0.313126C70.6234 6.05768 64.5615 14.7718 60.2906 25.5137C59.8363 26.6566 59.4095 27.8221 59 29H63.5657C63.9752 27.8221 64.4021 26.6566 64.8563 25.5137C68.8505 15.4686 74.4104 7.19839 81 1.46972Z" fill="#A92958"/>
<path id="Oval_2" d="M78.5 81C90.3741 81 100 71.3741 100 59.5C100 47.6259 90.3741 38 78.5 38C66.6259 38 57 47.6259 57 59.5C57 71.3741 66.6259 81 78.5 81Z" fill="#445EA0"/>
<path id="Oval_3" d="M78.5 61C84.299 61 89 56.299 89 50.5C89 44.701 84.299 40 78.5 40C72.701 40 68 44.701 68 50.5C68 56.299 72.701 61 78.5 61Z" fill="#69CDFF"/>
<path id="Shape_23" d="M71.7176 50.4998C71.7176 55.6412 75.2872 59.9167 80 60.821C79.3971 60.9365 78.7765 61 78.141 61C72.5399 61 68 56.2988 68 50.4998C68 44.7009 72.5402 40 78.141 40C78.7762 40 79.3971 40.0635 80 40.179C75.2872 41.0833 71.7176 45.3585 71.7176 50.4998Z" fill="#52BBEF"/>
<path id="Shape_24" d="M31.9997 51C31.625 51 31.2872 50.7743 31.1437 50.428C29.3198 46.0245 27.9752 44.6802 23.5717 42.8563C23.2254 42.7128 23 42.375 23 42.0003C23 41.6256 23.2257 41.2878 23.5717 41.1444C27.9755 39.3198 29.3198 37.9752 31.1437 33.572C31.2872 33.2257 31.625 33 31.9997 33C32.3744 33 32.7122 33.2257 32.8556 33.572C34.6798 37.9752 36.0245 39.3198 40.428 41.1444C40.7743 41.2878 41 41.6256 41 42.0003C41 42.375 40.7743 42.7132 40.428 42.8563C36.0245 44.6798 34.6798 46.0245 32.8556 50.428C32.7122 50.7743 32.3744 51 31.9997 51Z" fill="#FFD00D"/>
<path id="Shape_25" d="M32.5589 47.682C30.8147 43.4711 29.5288 42.1856 25.3178 40.4414C25.1097 40.3555 24.9476 40.1956 24.8554 40C24.4512 40.1893 24.02 40.3793 23.5467 40.5754C23.2156 40.7126 23 41.0356 23 41.3939C23 41.7523 23.2159 42.0756 23.5467 42.2124C27.7577 43.9566 29.0436 45.2421 30.7878 49.453C30.925 49.7841 31.248 50 31.6063 50C31.9647 50 32.2877 49.7841 32.4248 49.453C32.6207 48.9797 32.811 48.5486 33 48.1446C32.8047 48.0525 32.6451 47.89 32.5589 47.682Z" fill="#FFAF10"/>
<path id="Shape_26" d="M129 58C128.667 58 128.367 57.7995 128.239 57.4916C126.618 53.5773 125.423 52.3823 121.508 50.7612C121.201 50.634 121 50.3333 121 50.0003C121 49.667 121.201 49.367 121.508 49.2395C125.423 47.6177 126.618 46.4224 128.239 42.5084C128.367 42.2005 128.667 42 129 42C129.333 42 129.633 42.2005 129.761 42.5084C131.382 46.4227 132.577 47.6177 136.492 49.2395C136.799 49.367 137 49.667 137 50.0003C137 50.3333 136.799 50.6337 136.492 50.7612C132.577 52.3823 131.382 53.5773 129.761 57.4916C129.633 57.7991 129.333 58 129 58Z" fill="white"/>
<path id="Shape_27" d="M129.603 54.9141C128.033 51.1242 126.876 49.9672 123.086 48.3973C122.899 48.3199 122.753 48.1763 122.67 48C122.306 48.1702 121.918 48.3413 121.492 48.5179C121.194 48.6413 121 48.9318 121 49.2545C121 49.577 121.194 49.8677 121.492 49.9912C125.282 51.5608 126.439 52.7178 128.009 56.5077C128.132 56.8058 128.423 57 128.745 57C129.068 57 129.359 56.8058 129.482 56.5077C129.658 56.082 129.83 55.6936 130 55.3299C129.824 55.2474 129.681 55.1012 129.603 54.9141Z" fill="#D9EAFC"/>
<path id="Shape_28" d="M120 24C119.625 24 119.287 23.7742 119.144 23.4281C117.32 19.0243 115.975 17.6799 111.572 15.8563C111.226 15.7131 111 15.375 111 15.0005C111 14.6254 111.226 14.2879 111.572 14.1444C115.976 12.3198 117.32 10.9754 119.144 6.57224C119.287 6.22583 119.625 6 120 6C120.375 6 120.712 6.22583 120.856 6.57224C122.68 10.9757 124.025 12.3201 128.428 14.1444C128.774 14.2879 129 14.6254 129 15.0005C129 15.375 128.774 15.7131 128.428 15.8563C124.024 17.6799 122.68 19.0246 120.856 23.4281C120.712 23.7742 120.375 24 120 24Z" fill="#FE9923"/>
<path id="Shape_29" d="M121.515 21.4503C119.596 16.8183 118.182 15.4041 113.55 13.4855C113.321 13.3909 113.143 13.2151 113.041 13C112.597 13.2084 112.122 13.4174 111.601 13.6328C111.237 13.7838 111 14.1388 111 14.5334C111 14.9273 111.238 15.2829 111.601 15.4336C116.233 17.3522 117.648 18.7664 119.566 23.3984C119.717 23.7624 120.072 24 120.467 24C120.861 24 121.216 23.7624 121.367 23.3984C121.583 22.8777 121.792 22.4032 122 21.959C121.785 21.8576 121.609 21.6791 121.515 21.4503Z" fill="#EF8318"/>
</g>
<g id="dollar">
<path id="Shape_30" d="M77.9409 43C68.6664 43 61 50.5715 61 59.8919C61 69.2122 68.6664 76.9163 77.9409 76.9163C87.2154 76.9163 94.75 69.2122 94.75 59.8919C94.75 50.5715 87.2154 43 77.9409 43Z" fill="#FEDB41"/>
<path id="Shape_31" d="M96 59.8919C96 69.2122 88.1557 76.9163 78.5 76.9163V43C88.1557 43 96 50.5715 96 59.8919Z" fill="#FFCC33"/>
<path id="Shape_32" d="M77.942 46.7686C70.7499 46.7686 64.75 52.6635 64.75 59.8909C64.75 67.1184 70.7499 73.1479 77.942 73.1479C85.1341 73.1479 91 67.1184 91 59.8909C91 52.6635 85.1341 46.7686 77.942 46.7686Z" fill="#FEA832"/>
<path id="Shape_33" d="M91 59.8909C91 67.1184 85.3847 73.1479 78.5 73.1479V46.7686C85.3847 46.7686 91 52.6635 91 59.8909Z" fill="#FE9923"/>
<path id="Shape_34" fill-rule="evenodd" clip-rule="evenodd" d="M80.5395 58.2957H79.5526V54.4164H80.5395C81.0922 54.4164 81.5263 54.8431 81.5263 55.3862C81.5263 56.6664 83.5 56.6664 83.5 55.3862C83.5 53.7763 82.1778 52.4768 80.5395 52.4768H79.5526V51.5069C79.5526 50.8668 79.0592 50.5371 78.5658 50.5371C78.0724 50.5371 77.5789 50.8668 77.5789 51.5069V52.4768H76.4605C74.8222 52.4768 73.5 53.7763 73.5 55.3862V57.3259C73.5 58.9359 74.8222 60.2354 76.4605 60.2354H77.5789V64.244H76.4605C75.9078 64.244 75.4737 63.8173 75.4737 63.2742C75.4737 61.9941 73.5 61.9941 73.5 63.2742C73.5 64.8842 74.8222 66.1837 76.4605 66.1837H77.5789V67.1535C77.5789 67.7936 78.0724 68.1233 78.5658 68.1233C79.0592 68.1233 79.5526 67.7936 79.5526 67.1535V66.1837H80.5395C82.1778 66.1837 83.5 64.8842 83.5 63.2742V61.2052C83.5 59.5952 82.1778 58.2957 80.5395 58.2957ZM77.5789 58.2957H76.4605C75.9078 58.2957 75.4737 57.8691 75.4737 57.3259V55.3862C75.4737 54.8431 75.9078 54.4164 76.4605 54.4164H77.5789V58.2957ZM80.5395 64.244C81.0922 64.244 81.5263 63.8173 81.5263 63.2742V61.2052C81.5263 60.662 81.0922 60.2354 80.5395 60.2354H79.5526V64.244H80.5395Z" fill="#FEDB41"/>
<path id="Shape_35" fill-rule="evenodd" clip-rule="evenodd" d="M79.5 58.2957H80.5C82.1601 58.2957 83.5 59.5952 83.5 61.2052V63.2742C83.5 64.8842 82.1601 66.1837 80.5 66.1837H79.5V67.1535C79.5 67.7936 79 68.1233 78.5 68.1233V50.5371C79 50.5371 79.5 50.8668 79.5 51.5069V52.4768H80.5C82.1601 52.4768 83.5 53.7763 83.5 55.3862C83.5 56.6664 81.5 56.6664 81.5 55.3862C81.5 54.8431 81.0601 54.4164 80.5 54.4164H79.5V58.2957ZM80.5 64.244C81.0601 64.244 81.5 63.8173 81.5 63.2742V61.2052C81.5 60.662 81.0601 60.2354 80.5 60.2354H79.5V64.244H80.5Z" fill="#FFCC33"/>
</g>
</g>
</svg>
