<svg xmlns="http://www.w3.org/2000/svg" width="157" height="157" viewBox="0 0 157 157">
  <g fill="none">
    <circle cx="78.5" cy="78.5" r="78.5" fill="#401381"/>
    <path fill="#C8523B" d="M123.00011,113.971946 C123.00011,113.971946 126.209508,114.316995 126.833668,112.586887 C127.588963,110.493173 128,106.056787 128,99.3780197 C128,84.2771224 125.615763,54 125.615763,54 L120.384237,54 C120.384237,54 118,84.2771224 118,99.3780197 C118,106.056787 118.411037,110.493173 119.166332,112.586887 C119.790713,114.316995 123.00011,113.971946 123.00011,113.971946 Z"/>
    <path fill="#E5C400" d="M125.489187,54 L119.510309,54 C119.510309,54 119.301752,56.3218315 119,60 L126,60 C125.697996,56.3220526 125.489187,54 125.489187,54 Z"/>
    <path fill="#5B5B5F" d="M123.150343,34 C123.150343,34 134.945529,45.9011258 125.037662,54 L119.847869,54 C119.847869,54 114.029045,50.5524915 116.702486,44 C119.15694,37.9844227 123.150343,38.760014 123.150343,34 Z" opacity=".4"/>
    <path fill="#59595A" d="M124.886187,54 L119.11357,54 C119.11357,54 119.072228,54.7115734 119,56 L125,56 C124.927529,54.7115734 124.886187,54 124.886187,54 Z"/>
    <path fill="#EEF6FF" d="M38.3149427,106.685073 C54.7871749,123.157313 81.5548014,123.09744 98.1021663,106.549804 C106.375849,98.2766515 113.976661,79.0985844 104.852362,69.9736795 C95.7728313,60.8944556 87.72632,71.1811233 80.7724463,64.2273998 C73.8187942,57.273898 84.1055451,49.2269333 75.0260147,40.1477094 C65.9012718,31.0232479 46.723598,38.6242678 38.4501372,46.8976421 C21.9025508,63.4452777 21.8427106,90.2130553 38.3149427,106.685073 Z"/>
    <path fill="#5B5B5F" d="M125.343706,60.4878612 C125.20269,58.6755972 125.083092,57.1910926 124.997664,56.1456071 C124.996702,56.13379 124.995739,56.1219728 124.994777,56.1103786 C124.988039,56.0278813 124.981541,55.9476137 124.975044,55.8709136 C124.972878,55.8448266 124.970472,55.8158411 124.968547,55.7902001 C124.968547,55.7886393 124.968306,55.7875245 124.968306,55.7859637 C124.896836,54.9186277 124.856167,54.4396977 124.856167,54.4396977 L124.732959,54.4396977 C135.402738,46.1627707 122.700506,34 122.700506,34 C122.700506,35.203791 122.436523,36.0606476 122,36.7625431 L122,114.971723 C122.000963,114.971723 125.504213,115.319772 126.185709,113.573729 C127.010385,111.460461 127.45918,106.982421 127.45918,100.241504 C127.45918,89.2163032 126.097153,70.1790587 125.343706,60.4878612 Z" opacity=".3"/>
    <circle cx="44" cy="66" r="6" fill="#D88631"/>
    <circle cx="62" cy="54" r="6" fill="#FC3"/>
    <circle cx="92" cy="80" r="6" fill="#F70F47"/>
    <circle cx="81" cy="99" r="6" fill="#ABCB57"/>
    <circle cx="59" cy="103" r="6" fill="#7F87EF"/>
    <circle cx="43" cy="88" r="6" fill="#A92958"/>
  </g>
</svg>
